<?xml version="1.0" encoding="UTF-8" standalone="no"?>
<svg
   xmlns:dc="http://purl.org/dc/elements/1.1/"
   xmlns:cc="http://creativecommons.org/ns#"
   xmlns:rdf="http://www.w3.org/1999/02/22-rdf-syntax-ns#"
   xmlns:svg="http://www.w3.org/2000/svg"
   xmlns="http://www.w3.org/2000/svg"
   width="25.667999"
   height="25.492001"
   viewBox="0 0 6.7913246 6.7447587"
   version="1.1"
   id="svg8">
  <defs
     id="defs2">
    <rect
       x="3.8221345"
       y="3.1780832"
       width="201.43996"
       height="92.238968"
       id="rect835" />
  </defs>
  <metadata
     id="metadata5">
    <rdf:RDF>
      <cc:Work
         rdf:about="">
        <dc:format>image/svg+xml</dc:format>
        <dc:type
           rdf:resource="http://purl.org/dc/dcmitype/StillImage" />
        <dc:title></dc:title>
      </cc:Work>
    </rdf:RDF>
  </metadata>
  <g
     id="layer1">
    <path
       d="M 4.841341,1.649397 4.011609,0.76886535 c -0.1016,-0.1015998 -0.203199,-0.1015998 -0.321733,0 C 3.55441,0.87046515 3.55441,0.98899825 3.672946,1.0905981 L 4.519608,1.988063 4.248675,2.2589962 3.40201,1.3784642 C 3.300411,1.2937982 3.198811,1.2937982 3.080278,1.3953972 2.944811,1.496997 2.944811,1.5985968 3.063348,1.7001966 L 3.926947,2.5807282 3.418948,3.0887272 C 3.046415,2.7839282 2.606149,2.6145952 2.132017,2.6145952 c -0.558799,0 -1.032931,0.2032 -1.43933097,0.592665 -0.406399,0.4064 -0.592665,0.880532 -0.592665,1.422398 0,0.575732 0.186266,1.049864 0.592665,1.43933 0.40639997,0.389466 0.88053197,0.575732 1.43933097,0.575732 0.541865,0 1.015998,-0.186266 1.422397,-0.592665 C 3.94388,5.6625892 4.14708,5.1884572 4.14708,4.6296582 4.13015,4.1893922 3.977747,3.7829932 3.706814,3.4104602 l 0.524932,-0.507999 0.812798,0.846665 c 0.1016,0.1016 0.220133,0.1016 0.338666,0 0.118534,-0.1016 0.118534,-0.2032 0,-0.321733 l -0.812798,-0.846665 0.270933,-0.270932 0.812798,0.829731 c 0.08467,0.1016 0.186267,0.1016 0.321733,0 0.135466,-0.1016 0.135466,-0.203199 0.01693,-0.321732 L 5.163074,1.988063 5.45094,1.7001969 6.263738,2.5299282 c 0.1016,0.118534 0.2032,0.118534 0.338666,0.01693 0.118533,-0.1016 0.118533,-0.2032 0,-0.321733 L 5.772672,1.3784642 6.060538,1.141398 c 0.135467,-0.1354664 0.135467,-0.25399955 0.01693,-0.38946595 -0.135467,-0.1185331 -0.254,-0.1185331 -0.372533,0 L 5.654135,0.85353185 5.45094,1.0397982 4.621208,0.17619985 c -0.1016,-0.1015998 -0.220133,-0.1015998 -0.338666,0 -0.118533,0.1015998 -0.118533,0.2201329 0,0.3217327 L 5.129207,1.3784642 c -0.0508,0.033867 -0.1016,0.084667 -0.1524,0.1354664 -0.0508,0.067733 -0.1016,0.1015998 -0.135466,0.1354664 z M 2.132013,6.2044552 c -0.440266,0 -0.812799,-0.1524 -1.117598,-0.4572 -0.32173297,-0.304799 -0.47413197,-0.677332 -0.47413197,-1.117597 0,-0.423333 0.152399,-0.795865 0.47413197,-1.100665 0.304799,-0.304799 0.677332,-0.474132 1.117598,-0.474132 0.423332,0 0.795865,0.152399 1.100664,0.457199 0.3048,0.304799 0.474133,0.677332 0.474133,1.117598 0,0.440265 -0.1524,0.812798 -0.457199,1.117597 -0.3048,0.3048 -0.677332,0.4572 -1.117598,0.4572 z"
       id="path845"
       style="font-size:16.9333px;line-height:1.25;font-family:Neanes;-inkscape-font-specification:Neanes;white-space:pre;fill:#1d1f21;fill-opacity:1;stroke:#1d1f21;stroke-width:0.2;stroke-miterlimit:4;stroke-dasharray:none;stroke-opacity:1" />
  </g>
</svg>
