<?xml version="1.0" encoding="UTF-8" standalone="no"?>
<svg
   xmlns:dc="http://purl.org/dc/elements/1.1/"
   xmlns:cc="http://creativecommons.org/ns#"
   xmlns:rdf="http://www.w3.org/1999/02/22-rdf-syntax-ns#"
   xmlns:svg="http://www.w3.org/2000/svg"
   xmlns="http://www.w3.org/2000/svg"
   width="25.667999"
   height="25.492001"
   viewBox="0 0 6.7913246 6.7447587"
   version="1.1"
   id="svg8">
  <defs
     id="defs2">
    <rect
       x="3.8221345"
       y="3.1780832"
       width="201.43996"
       height="92.238968"
       id="rect835" />
  </defs>
  <metadata
     id="metadata5">
    <rdf:RDF>
      <cc:Work
         rdf:about="">
        <dc:format>image/svg+xml</dc:format>
        <dc:type
           rdf:resource="http://purl.org/dc/dcmitype/StillImage" />
        <dc:title></dc:title>
      </cc:Work>
    </rdf:RDF>
  </metadata>
  <g
     id="layer1">
    <path
       d="m 4.9778175,2.0557959 -0.829731,-0.846665 c -0.1016,-0.1015998 -0.2032,-0.1015998 -0.321733,0 -0.118533,0.1015998 -0.118533,0.2031996 0,0.3047994 l 0.829732,0.8635979 -0.829732,0.812799 c -0.372533,-0.3048 -0.778932,-0.457199 -1.253064,-0.457199 -0.541866,0 -1.015998,0.203199 -1.388531,0.592665 -0.38946597,0.389466 -0.57573197,0.846665 -0.57573197,1.371598 0,0.541865 0.186266,1.015998 0.57573197,1.38853 0.372533,0.372533 0.846665,0.558799 1.388531,0.558799 0.524932,0 0.982131,-0.186266 1.371597,-0.558799 0.389466,-0.372532 0.592666,-0.846665 0.592666,-1.38853 -0.01693,-0.440266 -0.1524,-0.846666 -0.423333,-1.202265 l 0.846665,-0.812798 0.795865,0.812798 c 0.08467,0.1016 0.186267,0.1016 0.3048,0 0.118533,-0.1016 0.118533,-0.203199 0.01693,-0.304799 l -0.795862,-0.812799 0.321733,-0.3217323 0.474132,-0.4571991 c 0.135466,-0.1354664 0.135466,-0.2539995 0.01693,-0.3725326 -0.118533,-0.1015998 -0.237066,-0.1015998 -0.355599,0.016933 l -0.186266,0.2201329 z m -2.404528,4.1655923 c -0.423333,0 -0.778932,-0.135467 -1.083731,-0.440266 -0.3048,-0.287866 -0.457199,-0.643466 -0.457199,-1.083731 0,-0.4064 0.152399,-0.778932 0.457199,-1.083732 0.304799,-0.304799 0.660398,-0.457199 1.083731,-0.457199 0.406399,0 0.778932,0.1524 1.083731,0.457199 0.304799,0.3048 0.457199,0.677332 0.457199,1.083732 0,0.423332 -0.1524,0.778931 -0.457199,1.083731 -0.304799,0.304799 -0.677332,0.440266 -1.083731,0.440266 z"
       id="path841"
       style="font-size:16.9333px;line-height:1.25;font-family:Neanes;-inkscape-font-specification:Neanes;white-space:pre;fill:#1d1f21;fill-opacity:1;stroke:#1d1f21;stroke-width:0.2;stroke-miterlimit:4;stroke-dasharray:none;stroke-opacity:1" />
  </g>
</svg>
