<?xml version="1.0" encoding="UTF-8" standalone="no"?>
<svg
   xmlns:dc="http://purl.org/dc/elements/1.1/"
   xmlns:cc="http://creativecommons.org/ns#"
   xmlns:rdf="http://www.w3.org/1999/02/22-rdf-syntax-ns#"
   xmlns:svg="http://www.w3.org/2000/svg"
   xmlns="http://www.w3.org/2000/svg"
   width="25.667999"
   height="25.492001"
   viewBox="0 0 6.7913246 6.7447587"
   version="1.1"
   id="svg8">
  <defs
     id="defs2">
    <rect
       x="3.8221345"
       y="3.1780832"
       width="201.43996"
       height="92.238968"
       id="rect835" />
  </defs>
  <metadata
     id="metadata5">
    <rdf:RDF>
      <cc:Work
         rdf:about="">
        <dc:format>image/svg+xml</dc:format>
        <dc:type
           rdf:resource="http://purl.org/dc/dcmitype/StillImage" />
        <dc:title></dc:title>
      </cc:Work>
    </rdf:RDF>
  </metadata>
  <g
     id="layer1">
    <path
       d="M 3.8157608,3.2411272 C 3.4432282,2.9532612 3.036829,2.8008612 2.5796299,2.8008612 c -0.5249323,0 -0.9821314,0.2032 -1.354664,0.575732 -0.37253257,0.389466 -0.55879887,0.846665 -0.55879887,1.354664 0,0.541866 0.1862663,0.982132 0.55879887,1.354664 0.3725326,0.372533 0.8127984,0.558799 1.354664,0.558799 0.5249323,0 0.9821314,-0.186266 1.354664,-0.558799 C 4.3068265,5.7133892 4.5100261,5.2731232 4.5100261,4.7312572 4.4930928,4.2909922 4.3576264,3.9015262 4.1036269,3.5459262 L 5.5598907,2.1404622 6.0340231,1.6832635 c 0.1185331,-0.1185331 0.1185331,-0.2370662 0.016933,-0.3555993 -0.1185331,-0.1015998 -0.2370662,-0.1015998 -0.338666,0 L 5.5090908,1.5477971 Z m -1.2361309,2.997194 c -0.4233325,0 -0.7789318,-0.135466 -1.0667979,-0.440266 -0.2878661,-0.287866 -0.4233325,-0.643465 -0.4233325,-1.066798 0,-0.406399 0.1354664,-0.761998 0.4233325,-1.066798 0.2878661,-0.287866 0.6434654,-0.440265 1.0667979,-0.440265 0.4233325,0 0.7789318,0.152399 1.0667979,0.440265 0.2878661,0.3048 0.4402658,0.660399 0.4402658,1.066798 0,0.423333 -0.1523997,0.778932 -0.4402658,1.066798 -0.3047994,0.3048 -0.6603987,0.440266 -1.0667979,0.440266 z"
       id="path839"
       style="font-size:16.9333px;line-height:1.25;font-family:Neanes;-inkscape-font-specification:Neanes;white-space:pre;fill:#1d1f21;fill-opacity:1;stroke:#1d1f21;stroke-width:0.2;stroke-miterlimit:4;stroke-dasharray:none;stroke-opacity:1" />
  </g>
</svg>
