<?xml version="1.0" encoding="UTF-8" standalone="no"?>
<svg
   xmlns:dc="http://purl.org/dc/elements/1.1/"
   xmlns:cc="http://creativecommons.org/ns#"
   xmlns:rdf="http://www.w3.org/1999/02/22-rdf-syntax-ns#"
   xmlns:svg="http://www.w3.org/2000/svg"
   xmlns="http://www.w3.org/2000/svg"
   width="25.667999"
   height="25.492001"
   viewBox="0 0 6.7913246 6.7447587"
   version="1.1"
   id="svg8">
  <defs
     id="defs2">
    <rect
       x="3.8221345"
       y="3.1780832"
       width="201.43996"
       height="92.238968"
       id="rect835" />
  </defs>
  <metadata
     id="metadata5">
    <rdf:RDF>
      <cc:Work
         rdf:about="">
        <dc:format>image/svg+xml</dc:format>
        <dc:type
           rdf:resource="http://purl.org/dc/dcmitype/StillImage" />
        <dc:title></dc:title>
      </cc:Work>
    </rdf:RDF>
  </metadata>
  <g
     id="layer1">
    <path
       d="M 5.18001,1.5985968 4.350279,0.76886505 c -0.08467,-0.1015998 -0.186267,-0.1015998 -0.3048,0 -0.135466,0.1015998 -0.135466,0.2031996 -0.01693,0.30479945 L 4.858281,1.9203295 4.451881,2.3436622 3.62215,1.496997 c -0.1016,-0.1015998 -0.2032,-0.1015998 -0.321733,0 -0.118533,0.1015998 -0.118533,0.2201329 0,0.3217327 L 4.130149,2.6653942 3.639083,3.1564602 C 3.266547,2.8516612 2.860148,2.6992612 2.386016,2.6992612 c -0.558799,0 -1.032932,0.2032 -1.40546397,0.575732 -0.389466,0.389466 -0.575732,0.846665 -0.575732,1.388531 0,0.558799 0.186266,1.032931 0.575732,1.405464 0.38946597,0.389466 0.86359797,0.575732 1.40546397,0.575732 0.524932,0 0.982131,-0.186266 1.371597,-0.575732 0.389466,-0.372533 0.592666,-0.846665 0.592666,-1.405464 0,-0.440266 -0.1524,-0.846665 -0.423333,-1.202264 l 0.507999,-0.491066 0.812798,0.829732 c 0.08467,0.101599 0.186267,0.101599 0.3048,0 0.118533,-0.1016 0.118533,-0.2032 0.01693,-0.3048 l -0.812798,-0.846665 0.423332,-0.389466 0.795865,0.812799 c 0.08467,0.1016 0.186267,0.1016 0.321733,0 0.118533,-0.1016 0.118533,-0.220133 0,-0.321733 L 5.501743,1.9372628 5.908142,1.5477969 c 0.118533,-0.1185331 0.118533,-0.2370662 0.01693,-0.3555993 -0.118533,-0.1185331 -0.237066,-0.1185331 -0.355599,0 L 5.383207,1.4123305 Z M 2.386016,6.2044542 c -0.440266,0 -0.795865,-0.135466 -1.100665,-0.440266 -0.30479897,-0.304799 -0.45719897,-0.660398 -0.45719897,-1.100664 0,-0.406399 0.1524,-0.778932 0.45719897,-1.083731 0.3048,-0.3048 0.660399,-0.457199 1.100665,-0.457199 0.406399,0 0.761998,0.152399 1.066798,0.457199 0.304799,0.304799 0.457199,0.677332 0.457199,1.083731 0,0.440266 -0.1524,0.795865 -0.457199,1.100664 -0.3048,0.3048 -0.660399,0.440266 -1.066798,0.440266 z"
       id="path843"
       style="font-size:16.9333px;line-height:1.25;font-family:Neanes;-inkscape-font-specification:Neanes;white-space:pre;fill:#1d1f21;fill-opacity:1;stroke:#1d1f21;stroke-width:0.2;stroke-miterlimit:4;stroke-dasharray:none;stroke-opacity:1" />
  </g>
</svg>
