<?xml version="1.0" encoding="UTF-8" standalone="no"?>
<svg
   xmlns:dc="http://purl.org/dc/elements/1.1/"
   xmlns:cc="http://creativecommons.org/ns#"
   xmlns:rdf="http://www.w3.org/1999/02/22-rdf-syntax-ns#"
   xmlns:svg="http://www.w3.org/2000/svg"
   xmlns="http://www.w3.org/2000/svg"
   width="71.829002"
   height="25.492001"
   viewBox="0 0 19.004756 6.7447587"
   version="1.1"
   id="svg8">
  <defs
     id="defs2">
    <rect
       x="6.0708389"
       y="8.6800041"
       width="188.14352"
       height="84.753662"
       id="rect835" />
  </defs>
  <metadata
     id="metadata5">
    <rdf:RDF>
      <cc:Work
         rdf:about="">
        <dc:format>image/svg+xml</dc:format>
        <dc:type
           rdf:resource="http://purl.org/dc/dcmitype/StillImage" />
        <dc:title></dc:title>
      </cc:Work>
    </rdf:RDF>
  </metadata>
  <g
     id="layer1">
    <g
       id="g899"
       transform="matrix(0.92257631,0,0,0.92257631,2.3290887,-35.130527)">
      <path
         d="m 3.5449218,42.252648 c 0.226772,0.133395 0.480221,0.186753 0.74701,0.186753 0.426863,0 0.800367,-0.146734 1.093835,-0.453542 0.306808,-0.293468 0.453542,-0.666972 0.453542,-1.093835 0,-0.426862 -0.146734,-0.800367 -0.453542,-1.107175 -0.293468,-0.293468 -0.666972,-0.453541 -1.093835,-0.453541 -0.426862,0 -0.787027,0.160073 -1.093835,0.466881 -0.306807,0.306807 -0.466881,0.666973 -0.466881,1.093835 0,0.466881 0.173413,0.853725 0.533578,1.160532 l -1.000458,1.333946 c -0.133395,0.186753 -0.346826,0.320147 -0.613615,0.400184 -0.26679,0.08004 -0.480221,0.08004 -0.613615,-0.01334 -0.09338,-0.05335 -0.05336,-0.173413 0.120055,-0.333487 0.120054,-0.09338 0.173413,-0.226771 0.160073,-0.400183 0,-0.160074 -0.0667,-0.293469 -0.173413,-0.373505 -0.32014705,-0.213432 -0.60027505,-0.186753 -0.81370705,0.106715 -0.160073,0.25345 -0.186752,0.49356 -0.05335,0.733671 0.133395,0.24011 0.333486,0.426862 0.600275,0.533578 0.120055,0.05335 0.28012905,0.09338 0.49356105,0.09338 0.21343,0.01334 0.360165,-0.01334 0.46688,-0.0667 0.106715,-0.05335 0.226771,-0.120055 0.373504,-0.200091 0.146735,-0.08004 0.26679,-0.200093 0.373506,-0.360166 z m 0.74701,-2.587854 c 0.346826,0 0.626954,0.120055 0.867065,0.360166 0.24011,0.24011 0.346826,0.533578 0.346826,0.867064 0,0.346826 -0.106716,0.626954 -0.346826,0.867065 -0.240111,0.24011 -0.520239,0.346825 -0.867065,0.346825 -0.333486,0 -0.626954,-0.106715 -0.867064,-0.346825 -0.240111,-0.240111 -0.360165,-0.520239 -0.360165,-0.867065 0,-0.333486 0.120054,-0.626954 0.360165,-0.867064 0.24011,-0.240111 0.533578,-0.360166 0.867064,-0.360166 z"
         id="path845"
         style="font-size:16.9333px;line-height:1.25;font-family:Neanes;-inkscape-font-specification:Neanes;white-space:pre;fill:#1d1f21;fill-opacity:1;stroke:#1d1f21;stroke-width:0.393882;stroke-miterlimit:4;stroke-dasharray:none;stroke-opacity:1" />
      <g
         id="g878"
         transform="matrix(0.4175289,0,0,0.4175289,-30.781247,36.778726)">
        <path
           d="m 90.674568,5.6961537 h 7.805193 V 7.1017499 H 92.344747 V 10.7563 h 5.878699 v 1.405596 h -5.878699 v 4.473103 h 6.283842 v 1.405597 h -7.954021 z"
           id="path851"
           style="font-size:16.9333px;line-height:1.25;font-family:sans-serif;-inkscape-font-specification:sans-serif;white-space:pre;fill:#1d1f21;fill-opacity:1;stroke:#1d1f21;stroke-width:0.5;stroke-miterlimit:4;stroke-dasharray:none;stroke-opacity:1" />
        <path
           d="m 101.37363,5.6961537 h 2.24896 l 5.47355,10.3269983 V 5.6961537 h 1.62057 V 18.040596 h -2.24895 L 102.9942,7.7135976 V 18.040596 h -1.62057 z"
           id="path853"
           style="font-size:16.9333px;line-height:1.25;font-family:sans-serif;-inkscape-font-specification:sans-serif;white-space:pre;fill:#1d1f21;fill-opacity:1;stroke:#1d1f21;stroke-width:0.5;stroke-miterlimit:4;stroke-dasharray:none;stroke-opacity:1" />
      </g>
    </g>
  </g>
</svg>
