<?xml version="1.0" encoding="UTF-8" standalone="no"?>
<svg
   xmlns:dc="http://purl.org/dc/elements/1.1/"
   xmlns:cc="http://creativecommons.org/ns#"
   xmlns:rdf="http://www.w3.org/1999/02/22-rdf-syntax-ns#"
   xmlns:svg="http://www.w3.org/2000/svg"
   xmlns="http://www.w3.org/2000/svg"
   width="71.829002"
   height="48.405998"
   viewBox="0 0 19.004758 12.807421"
   version="1.1"
   id="svg8">
  <defs
     id="defs2">
    <rect
       x="8.8569365"
       y="12.407811"
       width="407.32596"
       height="110.995"
       id="rect841" />
    <rect
       x="6.0549321"
       y="7.0818629"
       width="187.61836"
       height="273.24783"
       id="rect835" />
  </defs>
  <metadata
     id="metadata5">
    <rdf:RDF>
      <cc:Work
         rdf:about="">
        <dc:format>image/svg+xml</dc:format>
        <dc:type
           rdf:resource="http://purl.org/dc/dcmitype/StillImage" />
        <dc:title></dc:title>
      </cc:Work>
    </rdf:RDF>
  </metadata>
  <g
     id="layer1">
    <g
       id="g1394"
       transform="translate(-110.73904,-97.102113)">
      <path
         d="m 118.73438,97.452113 h -6.34999 v 0.220133 h 0.18627 c 0.32173,0 0.5588,0.08467 0.7112,0.220133 0.13546,0.1524 0.2032,0.406399 0.2032,0.745065 v 6.079056 c 0,0.33867 -0.0677,0.59266 -0.2032,0.74506 -0.1524,0.1524 -0.38947,0.22014 -0.7112,0.22014 h -0.18627 v 0.23706 h 3.38666 v -0.23706 h -0.3048 c -0.32173,0 -0.54186,-0.0677 -0.67733,-0.22014 -0.1524,-0.13546 -0.22013,-0.38946 -0.22013,-0.76199 v -6.722525 h 2.45533 c 0.54186,0 0.93133,0.118534 1.1684,0.338666 0.2032,0.237067 0.33866,0.626533 0.38946,1.168398 h 0.22013 z m 4.63973,3.335857 c -0.16934,0.23707 -0.28787,0.47414 -0.38947,0.7112 -0.1016,0.23707 -0.2032,0.47413 -0.3048,0.72813 -0.0508,-0.33866 -0.18627,-0.66039 -0.42333,-0.96519 -0.23707,-0.28787 -0.54187,-0.4572 -0.88053,-0.49107 -0.762,-0.0677 -1.35467,0.2032 -1.76107,0.8128 -0.4064,0.6096 -0.64346,1.20226 -0.69426,1.81186 -0.0677,0.6604 0.0339,1.25307 0.3048,1.76107 0.27093,0.50799 0.74506,0.76199 1.42239,0.76199 0.3556,0 0.67734,-0.11853 0.94827,-0.37253 0.27093,-0.23707 0.62653,-0.62653 1.04986,-1.1684 0.0677,0.23707 0.16934,0.49107 0.3048,0.72814 0.11854,0.23706 0.27094,0.45719 0.44027,0.62653 0.0847,0.13546 0.23706,0.18626 0.4572,0.18626 0.27093,0 0.49106,-0.1524 0.6604,-0.4572 0.13546,-0.25399 0.2032,-0.49106 0.18626,-0.71119 -0.0339,-0.22014 -0.11853,-0.3556 -0.27093,-0.38947 -0.16933,-0.0339 -0.33867,0.0847 -0.47413,0.32173 -0.13547,0.254 -0.27094,0.33867 -0.38947,0.27094 -0.2032,-0.1016 -0.33866,-0.23707 -0.4064,-0.42334 -0.0508,-0.0847 -0.1016,-0.2032 -0.13546,-0.3556 -0.0508,-0.1524 -0.0677,-0.254 -0.0677,-0.32173 0.1524,-0.33866 0.32174,-0.69426 0.49107,-1.0668 0.16933,-0.37253 0.28786,-0.62653 0.37253,-0.72813 0.0847,-0.1016 0.2032,-0.28786 0.3556,-0.5588 0.1524,-0.27093 0.23707,-0.4572 0.23707,-0.59266 0,-0.2032 -0.16934,-0.32174 -0.47414,-0.33867 -0.3048,0 -0.49106,0.0677 -0.55879,0.22013 z m -3.7084,4.18253 c -0.16933,-0.11853 -0.27093,-0.33867 -0.28786,-0.6604 -0.0339,-0.3048 -0.0169,-0.64347 0.0508,-0.99906 0.0508,-0.33867 0.16933,-0.62654 0.33866,-0.8636 0.16934,-0.23707 0.37254,-0.4064 0.57573,-0.54187 0.23707,-0.13546 0.57574,-0.254 0.98214,-0.33866 0.4064,-0.0847 0.71119,0.0339 0.89746,0.37253 0.0677,0.16933 0.11853,0.38946 0.13547,0.62653 0,0.23707 0,0.42333 -0.0339,0.52493 -0.1016,0.23707 -0.27093,0.54187 -0.508,0.9144 -0.23706,0.37253 -0.4572,0.64347 -0.62653,0.77893 -0.2032,0.16934 -0.4572,0.3048 -0.72813,0.37254 -0.28787,0.0847 -0.5588,0.0169 -0.79587,-0.18627 z"
         id="path883-9"
         style="font-size:16.9333px;line-height:1.25;font-family:Neanes;-inkscape-font-specification:Neanes;white-space:pre;shape-inside:url(#rect841);fill:#1d1f21;fill-opacity:1;stroke:#1d1f21;stroke-width:0.7;stroke-miterlimit:4;stroke-dasharray:none;stroke-opacity:1" />
      <path
         d="m 126.43902,100.94037 h 0.27094 l 0.8636,-1.76106 c 0.254,-0.507999 0.40639,-0.846665 0.45719,-0.999065 0.0339,-0.1016 0.0677,-0.2032 0.0677,-0.3048 -0.0169,-0.118533 -0.0677,-0.220132 -0.1524,-0.304799 -0.0847,-0.06773 -0.2032,-0.118533 -0.33867,-0.118533 -0.18626,0 -0.3556,0.06773 -0.49106,0.169333 -0.1524,0.118533 -0.254,0.304799 -0.32174,0.541866 -0.0677,0.186266 -0.11853,0.524932 -0.16933,1.015998 z"
         id="path885-2"
         style="font-size:16.9333px;line-height:1.25;font-family:Neanes;-inkscape-font-specification:Neanes;white-space:pre;shape-inside:url(#rect841);fill:#1d1f21;fill-opacity:1;stroke:#1d1f21;stroke-width:0.7;stroke-miterlimit:4;stroke-dasharray:none;stroke-opacity:1" />
    </g>
  </g>
</svg>
