<?xml version="1.0" encoding="UTF-8" standalone="no"?>
<svg
   xmlns:dc="http://purl.org/dc/elements/1.1/"
   xmlns:cc="http://creativecommons.org/ns#"
   xmlns:rdf="http://www.w3.org/1999/02/22-rdf-syntax-ns#"
   xmlns:svg="http://www.w3.org/2000/svg"
   xmlns="http://www.w3.org/2000/svg"
   width="71.829002"
   height="48.405998"
   viewBox="0 0 19.004756 12.807421"
   version="1.1"
   id="svg8">
  <defs
     id="defs2">
    <rect
       x="8.8569365"
       y="12.407811"
       width="407.32596"
       height="110.995"
       id="rect841" />
    <rect
       x="6.0549321"
       y="7.0818629"
       width="187.61836"
       height="273.24783"
       id="rect835" />
  </defs>
  <metadata
     id="metadata5">
    <rdf:RDF>
      <cc:Work
         rdf:about="">
        <dc:format>image/svg+xml</dc:format>
        <dc:type
           rdf:resource="http://purl.org/dc/dcmitype/StillImage" />
        <dc:title></dc:title>
      </cc:Work>
    </rdf:RDF>
  </metadata>
  <g
     id="layer1">
    <g
       id="g1410"
       transform="translate(-90.16042,-57.879945)">
      <path
         d="m 94.145292,62.260252 v 4.436525 h 1.18533 v -4.013193 c 1.10067,-0.08467 1.778,-0.135466 2.01506,-0.169333 0.23707,-0.01693 0.62654,-0.101599 1.1684,-0.253999 0.4572,-0.118533 0.69427,-0.406399 0.69427,-0.880532 0,-0.474132 -0.16934,-0.711198 -0.49107,-0.728132 -0.57573,0 -0.82973,0.270933 -0.74506,0.829732 l 0.0508,0.423333 -0.77894,0.186266 c -0.50799,0.118533 -1.54093,0.169333 -3.09879,0.169333 z"
         id="path861-5"
         style="font-size:16.9333px;line-height:1.25;font-family:Neanes;-inkscape-font-specification:Neanes;white-space:pre;shape-inside:url(#rect841);fill:#1d1f21;fill-opacity:1;stroke:#1d1f21;stroke-width:0.7;stroke-miterlimit:4;stroke-dasharray:none;stroke-opacity:1" />
      <path
         d="m 103.85688,61.565987 c -0.16933,0.237066 -0.28787,0.474133 -0.38947,0.711199 -0.1016,0.237066 -0.2032,0.474132 -0.3048,0.728132 -0.0508,-0.338666 -0.18626,-0.660399 -0.42333,-0.965198 -0.23707,-0.287866 -0.54187,-0.457199 -0.88053,-0.491066 -0.762,-0.06773 -1.35467,0.2032 -1.76106,0.812798 -0.4064,0.609599 -0.64347,1.202265 -0.69427,1.811863 -0.0677,0.660399 0.0339,1.253065 0.3048,1.761064 0.27093,0.507999 0.74506,0.761998 1.4224,0.761998 0.3556,0 0.67733,-0.118533 0.94826,-0.372532 0.27093,-0.237067 0.62653,-0.626533 1.04987,-1.168398 0.0677,0.237066 0.16933,0.491066 0.3048,0.728132 0.11853,0.237066 0.27093,0.457199 0.44026,0.626532 0.0847,0.135466 0.23707,0.186266 0.4572,0.186266 0.27093,0 0.49107,-0.1524 0.6604,-0.457199 0.13547,-0.253999 0.2032,-0.491066 0.18627,-0.711199 -0.0339,-0.220132 -0.11854,-0.355599 -0.27094,-0.389465 -0.16933,-0.03387 -0.33866,0.08467 -0.47413,0.321732 -0.13547,0.254 -0.27093,0.338666 -0.38947,0.270933 -0.2032,-0.1016 -0.33866,-0.237066 -0.40639,-0.423332 -0.0508,-0.08467 -0.1016,-0.2032 -0.13547,-0.3556 -0.0508,-0.152399 -0.0677,-0.253999 -0.0677,-0.321732 0.1524,-0.338666 0.32173,-0.694266 0.49106,-1.066798 0.16933,-0.372533 0.28787,-0.626532 0.37253,-0.728132 0.0847,-0.1016 0.2032,-0.287866 0.3556,-0.558799 0.1524,-0.270933 0.23707,-0.457199 0.23707,-0.592666 0,-0.203199 -0.16933,-0.321732 -0.47413,-0.338666 -0.3048,0 -0.49107,0.06773 -0.5588,0.220133 z m -3.70839,4.182525 c -0.16934,-0.118533 -0.27094,-0.338666 -0.28787,-0.660398 -0.0339,-0.3048 -0.0169,-0.643466 0.0508,-0.999065 0.0508,-0.338666 0.16933,-0.626532 0.33867,-0.863598 0.16933,-0.237067 0.37253,-0.4064 0.57573,-0.541866 0.23706,-0.135466 0.57573,-0.253999 0.98213,-0.338666 0.4064,-0.08467 0.7112,0.03387 0.89746,0.372533 0.0677,0.169333 0.11854,0.389466 0.13547,0.626532 0,0.237066 0,0.423332 -0.0339,0.524932 -0.1016,0.237066 -0.27093,0.541866 -0.508,0.914398 -0.23706,0.372533 -0.45719,0.643466 -0.62653,0.778932 -0.2032,0.169333 -0.4572,0.304799 -0.72813,0.372533 -0.28787,0.08467 -0.5588,0.01693 -0.79586,-0.186267 z"
         id="path853-5"
         style="font-size:16.9333px;line-height:1.25;font-family:Neanes;-inkscape-font-specification:Neanes;white-space:pre;shape-inside:url(#rect841);fill:#1d1f21;fill-opacity:1;stroke:#1d1f21;stroke-width:0.7;stroke-miterlimit:4;stroke-dasharray:none;stroke-opacity:1" />
    </g>
  </g>
</svg>
