<?xml version="1.0" encoding="UTF-8" standalone="no"?>
<svg
   xmlns:dc="http://purl.org/dc/elements/1.1/"
   xmlns:cc="http://creativecommons.org/ns#"
   xmlns:rdf="http://www.w3.org/1999/02/22-rdf-syntax-ns#"
   xmlns:svg="http://www.w3.org/2000/svg"
   xmlns="http://www.w3.org/2000/svg"
   width="71.829002"
   height="25.492001"
   viewBox="0 0 19.004756 6.7447587"
   version="1.1"
   id="svg8">
  <defs
     id="defs2">
    <rect
       x="6.0708389"
       y="8.6800041"
       width="188.14352"
       height="84.753662"
       id="rect835" />
  </defs>
  <metadata
     id="metadata5">
    <rdf:RDF>
      <cc:Work
         rdf:about="">
        <dc:format>image/svg+xml</dc:format>
        <dc:type
           rdf:resource="http://purl.org/dc/dcmitype/StillImage" />
        <dc:title></dc:title>
      </cc:Work>
    </rdf:RDF>
  </metadata>
  <g
     id="layer1">
    <g
       id="g893"
       transform="matrix(0.89047606,0,0,0.89047606,0.29811608,-21.043666)">
      <path
         d="m 6.5118088,27.90598 c -0.106715,0.280128 -0.280128,0.506899 -0.520239,0.680312 -0.24011,0.186752 -0.520238,0.266789 -0.827046,0.266789 -0.400183,0 -0.747009,-0.133394 -1.027137,-0.413523 -0.293469,-0.280129 -0.426863,-0.613615 -0.426863,-1.013799 0,-0.0667 0,-0.120055 0.01334,-0.160073 z m 0.08004,-0.346826 -2.787946,-0.640294 c 0.106716,-0.266789 0.280129,-0.49356 0.520239,-0.666972 0.24011,-0.173413 0.520239,-0.26679 0.840385,-0.26679 0.400184,0 0.73367,0.146734 1.013799,0.426863 0.280128,0.293468 0.426862,0.626954 0.426862,1.013798 -0.01334,0.08004 -0.01334,0.120056 -0.013339,0.133395 z m 0.346826,0.08004 c 0.01334,-0.05336 0.02668,-0.133395 0.02668,-0.213431 0,-0.49356 -0.186752,-0.920423 -0.533578,-1.280588 -0.346825,-0.346826 -0.773688,-0.533578 -1.267247,-0.533578 -0.400184,0 -0.74701,0.120055 -1.053818,0.346826 -0.320146,0.24011 -0.533578,0.533578 -0.653633,0.880404 l -1.907546,-0.440202 c -0.426863,-0.08004 -0.73367101,-0.02668 -0.92042301,0.160073 -0.200092,0.186752 -0.320146,0.346826 -0.360165,0.453541 -0.09338,0.213432 -0.09338,0.480221 -0.01334,0.813707 0.08004,0.346826 0.306808,0.560257 0.680313,0.640294 0.37350401,0.09338 0.60027501,-0.02668 0.68031201,-0.360165 0.0667,-0.320147 0.01334,-0.5069 -0.173413,-0.546918 -0.50689901,-0.09338 -0.73367001,-0.280129 -0.65363401,-0.546918 0.0667,-0.266789 0.29346901,-0.346825 0.68031301,-0.266789 l 1.907542,0.440202 c -0.02668,0.106716 -0.02668,0.186753 -0.02668,0.24011 0,0.49356 0.173413,0.920423 0.533578,1.267248 0.346826,0.360165 0.773688,0.533578 1.280588,0.533578 0.400184,0 0.74701,-0.106715 1.053817,-0.346825 0.306807,-0.226771 0.520238,-0.520239 0.640294,-0.880404 l 1.9475597,0.440202 c 0.400184,0.09338 0.693651,0.04002 0.893743,-0.160074 0.200092,-0.186752 0.3201465,-0.346825 0.3735045,-0.46688 0.09338,-0.186753 0.106716,-0.453542 0.02668,-0.787028 -0.08004,-0.333486 -0.3068065,-0.546918 -0.6803115,-0.653633 -0.400183,-0.09338 -0.626955,0.02668 -0.693652,0.346825 -0.08004,0.333487 -0.01334,0.520239 0.173413,0.546918 0.506899,0.120055 0.720331,0.306807 0.653634,0.560257 -0.08004,0.25345 -0.293468,0.333486 -0.666973,0.25345 z"
         id="path843"
         style="font-size:16.9333px;line-height:1.25;font-family:Neanes;-inkscape-font-specification:Neanes;white-space:pre;fill:#1d1f21;fill-opacity:1;stroke:#1d1f21;stroke-width:0.393882;stroke-miterlimit:4;stroke-dasharray:none;stroke-opacity:1" />
      <g
         id="g874"
         transform="matrix(0.4175289,0,0,0.4175289,-13.96647,22.460251)">
        <path
           d="m 60.735367,5.6961537 h 1.670179 V 10.7563 h 6.068868 V 5.6961537 h 1.670179 V 18.040596 h -1.670179 v -5.8787 h -6.068868 v 5.8787 h -1.670179 z"
           id="path847"
           style="font-size:16.9333px;line-height:1.25;font-family:sans-serif;-inkscape-font-specification:sans-serif;white-space:pre;fill:#1d1f21;fill-opacity:1;stroke:#1d1f21;stroke-width:0.5;stroke-miterlimit:4;stroke-dasharray:none;stroke-opacity:1" />
        <path
           d="m 82.712276,6.6469981 v 1.7611294 q -0.843358,-0.7854802 -1.80247,-1.1740862 -0.950845,-0.388606 -2.025712,-0.388606 -2.116663,0 -3.24114,1.2981094 -1.124477,1.2898412 -1.124477,3.7372323 0,2.439123 1.124477,3.737232 1.124477,1.289841 3.24114,1.289841 1.074867,0 2.025712,-0.388606 0.959112,-0.388606 1.80247,-1.174086 v 1.744593 q -0.87643,0.595311 -1.860348,0.892967 -0.975649,0.297656 -2.067053,0.297656 -2.802924,0 -4.415226,-1.71152 -1.612301,-1.719789 -1.612301,-4.688077 0,-2.9765567 1.612301,-4.6880768 1.612302,-1.7197883 4.415226,-1.7197883 1.107941,0 2.08359,0.2976557 0.983917,0.2893874 1.843811,0.8764305 z"
           id="path849"
           style="font-size:16.9333px;line-height:1.25;font-family:sans-serif;-inkscape-font-specification:sans-serif;white-space:pre;fill:#1d1f21;fill-opacity:1;stroke:#1d1f21;stroke-width:0.5;stroke-miterlimit:4;stroke-dasharray:none;stroke-opacity:1" />
      </g>
    </g>
  </g>
</svg>
