<?xml version="1.0" encoding="UTF-8" standalone="no"?>
<svg
   xmlns:dc="http://purl.org/dc/elements/1.1/"
   xmlns:cc="http://creativecommons.org/ns#"
   xmlns:rdf="http://www.w3.org/1999/02/22-rdf-syntax-ns#"
   xmlns:svg="http://www.w3.org/2000/svg"
   xmlns="http://www.w3.org/2000/svg"
   width="71.829002"
   height="48.405998"
   viewBox="0 0 19.004756 12.807421"
   version="1.1"
   id="svg8">
  <defs
     id="defs2">
    <rect
       x="8.8569365"
       y="12.407811"
       width="407.32596"
       height="110.995"
       id="rect841" />
    <rect
       x="6.0549321"
       y="7.0818629"
       width="187.61836"
       height="273.24783"
       id="rect835" />
  </defs>
  <metadata
     id="metadata5">
    <rdf:RDF>
      <cc:Work
         rdf:about="">
        <dc:format>image/svg+xml</dc:format>
        <dc:type
           rdf:resource="http://purl.org/dc/dcmitype/StillImage" />
        <dc:title></dc:title>
      </cc:Work>
    </rdf:RDF>
  </metadata>
  <g
     id="layer1">
    <path
       d="m 6.0923848,4.007593 0.9652,-1.168398 c 0.3048,-0.372532 0.5588,-0.660398 0.72813,-0.880531 0.16934,-0.2032 0.27094,-0.338666 0.3048,-0.389466 0.28787,-0.321733 0.508,-0.541866 0.6604,-0.643466 0.18627,-0.135466 0.33867,-0.237066 0.47414,-0.270932 0.10159,-0.03387 0.23706,-0.06773 0.40639,-0.08467 V 0.35 h -2.55692 v 0.220133 h 0.16933 c 0.1524,0 0.27093,0.0508 0.3556,0.118533 0.0677,0.06773 0.1016,0.1524 0.1016,0.254 0,0.118533 -0.0339,0.220133 -0.0677,0.321732 -0.13546,0.270933 -0.47413,0.728132 -0.99906,1.354664 l -1.60866,1.811863 V 1.840131 c 0,-0.507999 0.0339,-0.829732 0.13546,-0.965199 0.11854,-0.203199 0.32174,-0.304799 0.6096,-0.304799 h 0.254 V 0.35 h -2.98026 v 0.220133 h 0.254 c 0.1524,0 0.3048,0.0508 0.4572,0.1524 0.1016,0.08467 0.18627,0.169333 0.22013,0.270933 0.0339,0.152399 0.0677,0.440265 0.0677,0.846665 v 5.4694552 c -0.0169,0.507999 -0.0677,0.829732 -0.13547,0.965199 -0.13547,0.203199 -0.33867,0.304799 -0.6096,0.304799 h -0.254 v 0.237066 h 2.98026 v -0.237066 h -0.254 c -0.27093,0 -0.4572,-0.08467 -0.59266,-0.254 -0.1016,-0.118533 -0.1524,-0.457199 -0.1524,-1.015998 V 5.2945241 l 0.38946,-0.4741331 2.01507,2.6585282 c 0.18626,0.270933 0.28786,0.423333 0.30479,0.440266 0.0339,0.1016 0.0677,0.186267 0.0677,0.254 0,0.1016 -0.0508,0.203199 -0.13547,0.287866 -0.1016,0.08467 -0.23706,0.118533 -0.42333,0.118533 v 0.237066 h 3.3019902 v -0.237066 c -0.3048,0 -0.5926602,-0.1016 -0.8805302,-0.304799 -0.37253,-0.220133 -0.74506,-0.575733 -1.08373,-1.049865 z m 6.7055902,1.9642632 c -0.32173,0.118533 -0.59266,0.287866 -0.8128,0.491065 -0.22013,0.220133 -0.32173,0.524933 -0.32173,0.897465 0,0.541866 0.23707,0.914399 0.74507,1.134531 0.49106,0.220133 0.94826,0.321733 1.38853,0.321733 0.32173,0 0.59266,-0.03387 0.81279,-0.118533 0.22014,-0.08467 0.44027,-0.2032 0.6604,-0.355599 0.27094,-0.2032 0.4572,-0.474133 0.5588,-0.795865 0.11854,-0.372533 0.1524,-0.609599 0.11854,-0.677332 -0.0339,-0.06773 -0.11854,-0.06773 -0.23707,0.01693 -0.27093,0.2032 -0.57573,0.423332 -0.88053,0.677332 -0.3048,0.253999 -0.69427,0.423332 -1.13453,0.491066 -0.33867,0.06773 -0.67734,0.03387 -1.016,-0.08467 -0.3556,-0.1016 -0.52493,-0.338666 -0.52493,-0.677332 0,-0.304799 0.1016,-0.558799 0.32173,-0.778932 0.22013,-0.220133 0.49106,-0.338666 0.8128,-0.338666 0.0339,0 0.13546,0.03387 0.27093,0.08467 0.13547,0.06773 0.3048,0.08467 0.52493,0.08467 0.3048,0 0.47413,-0.101599 0.508,-0.338666 0,-0.237066 -0.13547,-0.3555991 -0.44026,-0.3555991 -0.254,0 -0.4572,0.03387 -0.6096,0.08467 -0.16934,0.06773 -0.254,0.08467 -0.28787,0.08467 -0.67733,-0.06773 -0.99906,-0.3217331 -0.99906,-0.7450652 0,-0.524932 0.45719,-0.795865 1.37159,-0.795865 0.3556,0 0.6096,0.1016 0.762,0.270933 0.13547,0.186266 0.33867,0.270932 0.59267,0.270932 0.3048,0 0.4572,-0.152399 0.4572,-0.457199 0,-0.118533 -0.0508,-0.253999 -0.1524,-0.389466 -0.16934,-0.203199 -0.42334,-0.321732 -0.762,-0.389466 -0.3556,-0.0508 -0.64347,-0.08467 -0.8636,-0.08467 -0.4064,0 -0.82973,0.1016 -1.27,0.304799 -0.4572,0.2032 -0.67733,0.524933 -0.67733,0.999065 0,0.3386661 0.1016,0.5926661 0.32173,0.7619991 0.22014,0.169333 0.47414,0.3047991 0.762,0.4063991 z"
       id="path857-3"
       style="font-size:16.9333px;line-height:1.25;font-family:Neanes;-inkscape-font-specification:Neanes;white-space:pre;shape-inside:url(#rect841);fill:#1d1f21;fill-opacity:1;stroke:#1d1f21;stroke-width:0.7;stroke-miterlimit:4;stroke-dasharray:none;stroke-opacity:1" />
  </g>
</svg>
