<?xml version="1.0" encoding="UTF-8" standalone="no"?>
<svg
   xmlns:dc="http://purl.org/dc/elements/1.1/"
   xmlns:cc="http://creativecommons.org/ns#"
   xmlns:rdf="http://www.w3.org/1999/02/22-rdf-syntax-ns#"
   xmlns:svg="http://www.w3.org/2000/svg"
   xmlns="http://www.w3.org/2000/svg"
   width="71.829002"
   height="48.405998"
   viewBox="0 0 19.004756 12.807421"
   version="1.1"
   id="svg8">
  <defs
     id="defs2">
    <rect
       x="8.8569365"
       y="12.407811"
       width="407.32596"
       height="110.995"
       id="rect841" />
    <rect
       x="6.0549321"
       y="7.0818629"
       width="187.61836"
       height="273.24783"
       id="rect835" />
  </defs>
  <metadata
     id="metadata5">
    <rdf:RDF>
      <cc:Work
         rdf:about="">
        <dc:format>image/svg+xml</dc:format>
        <dc:type
           rdf:resource="http://purl.org/dc/dcmitype/StillImage" />
        <dc:title></dc:title>
      </cc:Work>
    </rdf:RDF>
  </metadata>
  <g
     id="layer1">
    <g
       id="g1402"
       transform="translate(-157.04112,-97.102113)">
      <path
         d="m 161.20952,101.10971 0.9652,-1.168402 c 0.3048,-0.372532 0.5588,-0.660398 0.72813,-0.880531 0.16933,-0.2032 0.27093,-0.338666 0.3048,-0.389466 0.28786,-0.321733 0.508,-0.541866 0.6604,-0.643466 0.18626,-0.135466 0.33866,-0.237066 0.47413,-0.270932 0.1016,-0.03387 0.23707,-0.06773 0.4064,-0.08467 v -0.22013 h -2.55693 v 0.220133 h 0.16933 c 0.1524,0 0.27094,0.0508 0.3556,0.118533 0.0677,0.06773 0.1016,0.1524 0.1016,0.254 0,0.118533 -0.0339,0.220133 -0.0677,0.321732 -0.13547,0.270933 -0.47413,0.728132 -0.99907,1.354664 l -1.60866,1.811865 v -2.590796 c 0,-0.507999 0.0339,-0.829732 0.13547,-0.965199 0.11853,-0.203199 0.32173,-0.304799 0.6096,-0.304799 h 0.254 v -0.220133 h -2.98027 v 0.220133 h 0.254 c 0.1524,0 0.3048,0.0508 0.4572,0.1524 0.1016,0.08467 0.18627,0.169333 0.22014,0.270933 0.0339,0.152399 0.0677,0.440265 0.0677,0.846665 v 5.469456 c -0.0169,0.508 -0.0677,0.82973 -0.13547,0.9652 -0.13546,0.2032 -0.33866,0.3048 -0.6096,0.3048 h -0.254 v 0.23706 h 2.98027 v -0.23706 h -0.254 c -0.27094,0 -0.4572,-0.0847 -0.59267,-0.254 -0.1016,-0.11854 -0.1524,-0.4572 -0.1524,-1.016 v -2.01506 l 0.38947,-0.47414 2.01506,2.65853 c 0.18627,0.27094 0.28787,0.42334 0.3048,0.44027 0.0339,0.1016 0.0677,0.18627 0.0677,0.254 0,0.1016 -0.0508,0.2032 -0.13546,0.28786 -0.1016,0.0847 -0.23707,0.11854 -0.42334,0.11854 v 0.23706 h 3.302 v -0.23706 c -0.3048,0 -0.59267,-0.1016 -0.88053,-0.3048 -0.37254,-0.22013 -0.74507,-0.57573 -1.08374,-1.04987 z m 6.70559,1.96426 c -0.32174,0.11853 -0.59267,0.28787 -0.8128,0.49106 -0.22014,0.22014 -0.32174,0.52494 -0.32174,0.89747 0,0.54187 0.23707,0.9144 0.74507,1.13453 0.49107,0.22013 0.94826,0.32173 1.38853,0.32173 0.32173,0 0.59267,-0.0339 0.8128,-0.11853 0.22013,-0.0847 0.44026,-0.2032 0.6604,-0.3556 0.27093,-0.2032 0.4572,-0.47413 0.5588,-0.79586 0.11853,-0.37254 0.1524,-0.6096 0.11853,-0.67734 -0.0339,-0.0677 -0.11853,-0.0677 -0.23707,0.0169 -0.27093,0.2032 -0.57573,0.42334 -0.88053,0.67734 -0.3048,0.254 -0.69426,0.42333 -1.13453,0.49106 -0.33867,0.0677 -0.67733,0.0339 -1.016,-0.0847 -0.3556,-0.1016 -0.52493,-0.33866 -0.52493,-0.67733 0,-0.3048 0.1016,-0.5588 0.32173,-0.77893 0.22014,-0.22013 0.49107,-0.33867 0.8128,-0.33867 0.0339,0 0.13547,0.0339 0.27093,0.0847 0.13547,0.0677 0.3048,0.0847 0.52494,0.0847 0.3048,0 0.47413,-0.1016 0.508,-0.33866 0,-0.23707 -0.13547,-0.3556 -0.44027,-0.3556 -0.254,0 -0.4572,0.0339 -0.6096,0.0847 -0.16933,0.0677 -0.254,0.0847 -0.28787,0.0847 -0.67733,-0.0677 -0.99906,-0.32174 -0.99906,-0.74507 0,-0.52493 0.4572,-0.79586 1.3716,-0.79586 0.3556,0 0.6096,0.1016 0.762,0.27093 0.13546,0.18627 0.33866,0.27093 0.59266,0.27093 0.3048,0 0.4572,-0.1524 0.4572,-0.4572 0,-0.11853 -0.0508,-0.254 -0.1524,-0.38946 -0.16933,-0.2032 -0.42333,-0.32173 -0.762,-0.38947 -0.3556,-0.0508 -0.64346,-0.0847 -0.8636,-0.0847 -0.4064,0 -0.82973,0.1016 -1.26999,0.3048 -0.4572,0.2032 -0.67734,0.52493 -0.67734,0.99907 0,0.33866 0.1016,0.59266 0.32174,0.76199 0.22013,0.16934 0.47413,0.3048 0.762,0.4064 z"
         id="path891-3"
         style="font-size:16.9333px;line-height:1.25;font-family:Neanes;-inkscape-font-specification:Neanes;white-space:pre;shape-inside:url(#rect841);fill:#1d1f21;fill-opacity:1;stroke:#1d1f21;stroke-width:0.7;stroke-miterlimit:4;stroke-dasharray:none;stroke-opacity:1" />
      <path
         d="m 173.26604,100.94037 h 0.27093 l 0.8636,-1.76106 c 0.254,-0.507999 0.4064,-0.846665 0.4572,-0.999065 0.0339,-0.1016 0.0677,-0.2032 0.0677,-0.3048 -0.0169,-0.118533 -0.0677,-0.220132 -0.1524,-0.304799 -0.0847,-0.06773 -0.2032,-0.118533 -0.33866,-0.118533 -0.18627,0 -0.3556,0.06773 -0.49107,0.169333 -0.1524,0.118533 -0.254,0.304799 -0.32173,0.541866 -0.0677,0.186266 -0.11854,0.524932 -0.16934,1.015998 z"
         id="path893-7"
         style="font-size:16.9333px;line-height:1.25;font-family:Neanes;-inkscape-font-specification:Neanes;white-space:pre;shape-inside:url(#rect841);fill:#1d1f21;fill-opacity:1;stroke:#1d1f21;stroke-width:0.7;stroke-miterlimit:4;stroke-dasharray:none;stroke-opacity:1" />
    </g>
  </g>
</svg>
