<?xml version="1.0" encoding="UTF-8" standalone="no"?>
<svg
   xmlns:dc="http://purl.org/dc/elements/1.1/"
   xmlns:cc="http://creativecommons.org/ns#"
   xmlns:rdf="http://www.w3.org/1999/02/22-rdf-syntax-ns#"
   xmlns:svg="http://www.w3.org/2000/svg"
   xmlns="http://www.w3.org/2000/svg"
   width="71.829002"
   height="48.405998"
   viewBox="0 0 19.004756 12.807421"
   version="1.1"
   id="svg8">
  <defs
     id="defs2">
    <rect
       x="8.8569365"
       y="12.407811"
       width="407.32596"
       height="110.995"
       id="rect841" />
    <rect
       x="6.0549321"
       y="7.0818629"
       width="187.61836"
       height="273.24783"
       id="rect835" />
  </defs>
  <metadata
     id="metadata5">
    <rdf:RDF>
      <cc:Work
         rdf:about="">
        <dc:format>image/svg+xml</dc:format>
        <dc:type
           rdf:resource="http://purl.org/dc/dcmitype/StillImage" />
        <dc:title></dc:title>
      </cc:Work>
    </rdf:RDF>
  </metadata>
  <g
     id="layer1">
    <path
       d="m 2.5343205,0.35 v 0.220133 h 0.135466 c 0.220133,0 0.474133,0.1016 0.745065,0.270933 0.135467,0.1016 0.321733,0.304799 0.558799,0.609599 v 5.8927882 c 0,0.474132 -0.0508,0.778932 -0.118533,0.914398 -0.135466,0.220133 -0.355599,0.321733 -0.660398,0.321733 h -0.254 v 0.237066 h 2.556928 v -0.237066 h -0.270932 c -0.3048,0.01693 -0.507999,-0.06773 -0.626533,-0.254 -0.101599,-0.118533 -0.152399,-0.440265 -0.152399,-0.982131 V 2.127997 l 4.859857,6.8241202 h 0.186266 V 1.806264 c 0,-0.457199 0.03387,-0.761999 0.118533,-0.897465 0.135467,-0.220133 0.3556,-0.338666 0.6603985,-0.338666 h 0.253999 V 0.35 H 7.9699095 v 0.220133 h 0.254 c 0.287866,0 0.507999,0.1016 0.643465,0.270933 0.1016,0.135466 0.1524,0.457199 0.1524,0.965198 V 6.6999882 L 4.5155165,0.35 Z m 9.7027805,8.4666502 h 1.100664 c 0,-0.558799 0.06773,-1.168398 0.2032,-1.811863 0.135466,-0.643465 0.355599,-1.236131 0.643465,-1.7441301 0.169333,-0.3047991 0.3556,-0.6095991 0.575732,-0.9143981 0.2032,-0.304799 0.524933,-0.304799 0.948265,-0.01693 0.1524,0.118533 0.254,0.355599 0.3048,0.694265 0.03387,0.3555991 0.0508,0.7281322 0.0508,1.1175982 -0.01693,0.389466 -0.03387,0.745065 -0.06773,1.083731 -0.03387,0.338666 -0.06773,0.524932 -0.06773,0.592665 -0.169333,0.948265 -0.321733,1.642531 -0.423332,2.04893 -0.1016,0.4063988 -0.2032,0.9651978 -0.3048,1.6425298 -0.03387,0.220133 0,0.440266 0.1016,0.643465 0.1016,0.2032 0.270933,0.3048 0.507999,0.3048 0.135466,0 0.254,-0.06773 0.389466,-0.2032 0.135466,-0.135466 0.186266,-0.406399 0.186266,-0.812798 -0.06773,-0.812799 -0.06773,-1.6763968 0,-2.5569288 0.0508,-0.880531 0.08467,-1.74413 0.08467,-2.607728 0,-0.507999 -0.06773,-1.0837311 -0.169333,-1.7271962 -0.1016,-0.643466 -0.507999,-0.965199 -1.219198,-0.965199 -0.507999,0 -0.897465,0.237067 -1.151464,0.677332 C 13.659508,4.701861 13.422442,5.1590601 13.185376,5.6162591 13.151506,5.3453271 13.066842,4.955861 12.897509,4.413995 12.728176,3.889063 12.474177,3.61813 12.152444,3.601197 c -0.304799,0 -0.575732,0.1016 -0.795865,0.321732 -0.237066,0.254 -0.389466,0.660399 -0.440266,1.2022651 h 0.254 c 0.03387,-0.3725331 0.270933,-0.5587991 0.694265,-0.5587991 0.270933,0 0.491066,0.169333 0.626532,0.491066 0.135467,0.3217321 0.220133,0.6942652 0.220133,1.1345312 0,0.355599 -0.08467,0.745065 -0.220133,1.168397 -0.135466,0.440266 -0.220133,0.914399 -0.253999,1.456264 z"
       id="path847-1"
       style="font-size:16.9333px;line-height:1.25;font-family:Neanes;-inkscape-font-specification:Neanes;white-space:pre;shape-inside:url(#rect841);fill:#1d1f21;fill-opacity:1;stroke:#1d1f21;stroke-width:0.7;stroke-miterlimit:4;stroke-dasharray:none;stroke-opacity:1" />
  </g>
</svg>
