<?xml version="1.0" encoding="UTF-8" standalone="no"?>
<svg
   xmlns:dc="http://purl.org/dc/elements/1.1/"
   xmlns:cc="http://creativecommons.org/ns#"
   xmlns:rdf="http://www.w3.org/1999/02/22-rdf-syntax-ns#"
   xmlns:svg="http://www.w3.org/2000/svg"
   xmlns="http://www.w3.org/2000/svg"
   width="71.829002"
   height="48.405998"
   viewBox="0 0 19.004756 12.807421"
   version="1.1"
   id="svg8">
  <defs
     id="defs2">
    <rect
       x="8.8569365"
       y="12.407811"
       width="407.32596"
       height="110.995"
       id="rect841" />
    <rect
       x="6.0549321"
       y="7.0818629"
       width="187.61836"
       height="273.24783"
       id="rect835" />
  </defs>
  <metadata
     id="metadata5">
    <rdf:RDF>
      <cc:Work
         rdf:about="">
        <dc:format>image/svg+xml</dc:format>
        <dc:type
           rdf:resource="http://purl.org/dc/dcmitype/StillImage" />
        <dc:title></dc:title>
      </cc:Work>
    </rdf:RDF>
  </metadata>
  <g
     id="layer1">
    <g
       id="g1382"
       transform="translate(-45.443647,-97.102113)">
      <path
         d="m 46.00527,97.452113 v 0.220133 h 0.13546 c 0.22014,0 0.47414,0.1016 0.74507,0.270933 0.13547,0.1016 0.32173,0.304799 0.5588,0.609599 v 5.892792 c 0,0.47413 -0.0508,0.77893 -0.11854,0.91439 -0.13546,0.22014 -0.35559,0.32174 -0.66039,0.32174 h -0.254 v 0.23706 h 2.55693 v -0.23706 h -0.27094 c -0.3048,0.0169 -0.508,-0.0677 -0.62653,-0.254 -0.1016,-0.11854 -0.1524,-0.44027 -0.1524,-0.98213 v -5.21546 l 4.85986,6.82412 h 0.18626 v -7.145853 c 0,-0.457199 0.0339,-0.761999 0.11854,-0.897465 0.13546,-0.220133 0.3556,-0.338666 0.6604,-0.338666 h 0.254 v -0.220133 h -2.55693 v 0.220133 h 0.254 c 0.28786,0 0.508,0.1016 0.64346,0.270933 0.1016,0.135466 0.1524,0.457199 0.1524,0.965198 v 4.893723 l -4.50426,-6.349987 z m 9.70278,8.466647 h 1.10066 c 0,-0.5588 0.0677,-1.16839 0.2032,-1.81186 0.13547,-0.64346 0.3556,-1.23613 0.64347,-1.74413 0.16933,-0.3048 0.3556,-0.6096 0.57573,-0.9144 0.2032,-0.3048 0.52493,-0.3048 0.94826,-0.0169 0.1524,0.11854 0.254,0.3556 0.3048,0.69427 0.0339,0.3556 0.0508,0.72813 0.0508,1.1176 -0.0169,0.38946 -0.0339,0.74506 -0.0677,1.08373 -0.0339,0.33866 -0.0677,0.52493 -0.0677,0.59266 -0.16934,0.94827 -0.32173,1.64253 -0.42333,2.04893 -0.1016,0.4064 -0.2032,0.9652 -0.3048,1.64253 -0.0339,0.22013 0,0.44027 0.1016,0.64347 0.1016,0.2032 0.27093,0.3048 0.50799,0.3048 0.13547,0 0.254,-0.0677 0.38947,-0.2032 0.13547,-0.13547 0.18627,-0.4064 0.18627,-0.8128 -0.0677,-0.8128 -0.0677,-1.6764 0,-2.55693 0.0508,-0.88053 0.0847,-1.74413 0.0847,-2.60773 0,-0.508 -0.0677,-1.08373 -0.16933,-1.72719 -0.1016,-0.64347 -0.508,-0.9652 -1.2192,-0.9652 -0.508,0 -0.89746,0.23706 -1.15146,0.67733 -0.27093,0.44026 -0.508,0.89746 -0.74507,1.35466 -0.0339,-0.27093 -0.11853,-0.6604 -0.28786,-1.20226 -0.16934,-0.52493 -0.42334,-0.79587 -0.74507,-0.8128 -0.3048,0 -0.57573,0.1016 -0.79586,0.32173 -0.23707,0.254 -0.38947,0.6604 -0.44027,1.20227 h 0.254 c 0.0339,-0.37254 0.27093,-0.5588 0.69427,-0.5588 0.27093,0 0.49106,0.16933 0.62653,0.49106 0.13546,0.32174 0.22013,0.69427 0.22013,1.13454 0,0.35559 -0.0847,0.74506 -0.22013,1.16839 -0.13547,0.44027 -0.22013,0.9144 -0.254,1.45627 z"
         id="path871-6"
         style="font-size:16.9333px;line-height:1.25;font-family:Neanes;-inkscape-font-specification:Neanes;white-space:pre;shape-inside:url(#rect841);fill:#1d1f21;fill-opacity:1;stroke:#1d1f21;stroke-width:0.7;stroke-miterlimit:4;stroke-dasharray:none;stroke-opacity:1" />
      <path
         d="m 62.22735,100.94037 h 0.27094 l 0.86359,-1.76106 c 0.254,-0.507999 0.4064,-0.846665 0.4572,-0.999065 0.0339,-0.1016 0.0677,-0.2032 0.0677,-0.3048 -0.0169,-0.118533 -0.0677,-0.220132 -0.1524,-0.304799 -0.0847,-0.06773 -0.2032,-0.118533 -0.33867,-0.118533 -0.18627,0 -0.3556,0.06773 -0.49107,0.169333 -0.15239,0.118533 -0.25399,0.304799 -0.32173,0.541866 -0.0677,0.186266 -0.11853,0.524932 -0.16933,1.015998 z"
         id="path873-2"
         style="font-size:16.9333px;line-height:1.25;font-family:Neanes;-inkscape-font-specification:Neanes;white-space:pre;shape-inside:url(#rect841);fill:#1d1f21;fill-opacity:1;stroke:#1d1f21;stroke-width:0.7;stroke-miterlimit:4;stroke-dasharray:none;stroke-opacity:1" />
    </g>
  </g>
</svg>
