<?xml version="1.0" encoding="UTF-8" standalone="no"?>
<svg
   xmlns:dc="http://purl.org/dc/elements/1.1/"
   xmlns:cc="http://creativecommons.org/ns#"
   xmlns:rdf="http://www.w3.org/1999/02/22-rdf-syntax-ns#"
   xmlns:svg="http://www.w3.org/2000/svg"
   xmlns="http://www.w3.org/2000/svg"
   width="71.829002"
   height="48.405998"
   viewBox="0 0 19.004756 12.807421"
   version="1.1"
   id="svg8">
  <defs
     id="defs2">
    <rect
       x="8.8569365"
       y="12.407811"
       width="407.32596"
       height="110.995"
       id="rect841" />
    <rect
       x="6.0549321"
       y="7.0818629"
       width="187.61836"
       height="273.24783"
       id="rect835" />
  </defs>
  <metadata
     id="metadata5">
    <rdf:RDF>
      <cc:Work
         rdf:about="">
        <dc:format>image/svg+xml</dc:format>
        <dc:type
           rdf:resource="http://purl.org/dc/dcmitype/StillImage" />
        <dc:title></dc:title>
      </cc:Work>
    </rdf:RDF>
  </metadata>
  <g
     id="layer1">
    <path
       d="m 7.9006637,0.824133 v 6.7902532 c 0,0.355599 -0.06773,0.609599 -0.186267,0.745065 -0.135466,0.1524 -0.338666,0.220133 -0.609598,0.220133 h -0.254 v 0.237066 h 3.064927 v -0.237066 h -0.169333 c -0.304799,0 -0.507999,-0.06773 -0.609598,-0.220133 -0.135467,-0.135466 -0.186267,-0.389466 -0.186267,-0.745065 V 1.535331 c 0,-0.338666 0.0508,-0.592665 0.186267,-0.745065 0.101599,-0.135466 0.304799,-0.220133 0.609598,-0.220133 h 0.169333 V 0.35 h -7.365985 v 0.220133 h 0.169333 c 0.270933,0 0.474132,0.08467 0.609599,0.220133 0.118533,0.1524 0.186266,0.406399 0.186266,0.745065 v 6.0790552 c 0,0.355599 -0.06773,0.609599 -0.186266,0.745065 -0.135467,0.1524 -0.338666,0.220133 -0.609599,0.220133 h -0.169333 v 0.237066 h 3.047994 v -0.237066 h -0.270933 c -0.287866,0 -0.491066,-0.06773 -0.592665,-0.220133 -0.135467,-0.135466 -0.186267,-0.389466 -0.186267,-0.745065 V 0.824133 Z M 15.114247,3.68586 c -0.16933,0.237066 -0.287864,0.474133 -0.37253,0.711199 -0.1016,0.237066 -0.2032,0.474132 -0.304799,0.7281321 C 14.386118,4.786525 14.250651,4.464792 14.013585,4.159993 13.776519,3.872127 13.471719,3.702794 13.133053,3.668927 c -0.745065,-0.06773 -1.33773,0.2032 -1.744129,0.812798 -0.4064,0.6095991 -0.643466,1.2022651 -0.694266,1.8118632 -0.06773,0.660399 0.03387,1.253065 0.3048,1.761064 0.270932,0.507999 0.745065,0.761998 1.422397,0.761998 0.338666,0 0.643465,-0.118533 0.931331,-0.372532 0.270933,-0.237067 0.626532,-0.626533 1.049865,-1.168398 0.08467,0.237066 0.186266,0.491066 0.304799,0.728132 0.118533,0.237066 0.270933,0.457199 0.440267,0.626532 0.1016,0.135466 0.254,0.186266 0.4572,0.186266 0.27093,0 0.508,-0.1524 0.67733,-0.457199 0.13547,-0.253999 0.18627,-0.491066 0.16933,-0.711199 -0.0339,-0.220132 -0.11853,-0.355599 -0.27093,-0.389465 -0.16933,-0.03387 -0.32173,0.08467 -0.4572,0.321732 -0.1524,0.254 -0.28786,0.338666 -0.4064,0.270933 -0.2032,-0.1016 -0.338664,-0.237066 -0.406397,-0.423332 -0.0508,-0.08467 -0.1016,-0.2032 -0.1524,-0.3556 -0.0508,-0.152399 -0.06773,-0.253999 -0.06773,-0.321732 0.169333,-0.338666 0.338666,-0.694266 0.507997,-1.0667981 0.16934,-0.372533 0.3048,-0.6265321 0.38947,-0.7281321 0.0677,-0.1016 0.18626,-0.287866 0.33866,-0.558799 0.1524,-0.270933 0.23707,-0.457199 0.23707,-0.592666 0,-0.203199 -0.16933,-0.321732 -0.47413,-0.338666 -0.32173,0 -0.508,0.06773 -0.57573,0.220133 z M 11.42279,7.8683852 c -0.169333,-0.118533 -0.270933,-0.338666 -0.304799,-0.660398 -0.03387,-0.3048 0,-0.643466 0.06773,-0.999065 0.0508,-0.338666 0.169333,-0.6265321 0.338666,-0.8635981 0.169333,-0.237067 0.372533,-0.4064001 0.575732,-0.5418661 0.237066,-0.135466 0.575732,-0.253999 0.982132,-0.338666 0.406399,-0.08467 0.711198,0.03387 0.897464,0.372533 0.06773,0.169333 0.118534,0.3894661 0.135467,0.6265321 0,0.237066 0,0.4233321 -0.03387,0.5249321 -0.1016,0.237066 -0.270933,0.541866 -0.507999,0.914398 -0.237066,0.372533 -0.457199,0.643466 -0.626532,0.778932 -0.203199,0.169333 -0.457199,0.304799 -0.728132,0.372533 -0.287866,0.08467 -0.558799,0.01693 -0.795865,-0.186267 z"
       id="path849-2"
       style="font-size:16.9333px;line-height:1.25;font-family:Neanes;-inkscape-font-specification:Neanes;white-space:pre;shape-inside:url(#rect841);fill:#1d1f21;fill-opacity:1;stroke:#1d1f21;stroke-width:0.7;stroke-miterlimit:4;stroke-dasharray:none;stroke-opacity:1" />
  </g>
</svg>
