<?xml version="1.0" encoding="UTF-8" standalone="no"?>
<svg
   xmlns:dc="http://purl.org/dc/elements/1.1/"
   xmlns:cc="http://creativecommons.org/ns#"
   xmlns:rdf="http://www.w3.org/1999/02/22-rdf-syntax-ns#"
   xmlns:svg="http://www.w3.org/2000/svg"
   xmlns="http://www.w3.org/2000/svg"
   width="71.829002"
   height="25.492001"
   viewBox="0 0 19.004756 6.7447587"
   version="1.1"
   id="svg8">
  <defs
     id="defs2">
    <rect
       x="6.0708389"
       y="8.6800041"
       width="188.14352"
       height="84.753662"
       id="rect835" />
  </defs>
  <metadata
     id="metadata5">
    <rdf:RDF>
      <cc:Work
         rdf:about="">
        <dc:format>image/svg+xml</dc:format>
        <dc:type
           rdf:resource="http://purl.org/dc/dcmitype/StillImage" />
        <dc:title></dc:title>
      </cc:Work>
    </rdf:RDF>
  </metadata>
  <g
     id="layer1">
    <g
       id="g881"
       transform="matrix(0.89047606,0,0,0.89047606,0.03745521,-9.3696374)">
      <path
         d="m 7.3335509,13.961981 c -0.040019,-0.453541 -0.226771,-0.853725 -0.573597,-1.187211 -0.346825,-0.320147 -0.760349,-0.49356 -1.240568,-0.49356 -0.480221,0 -0.893744,0.173413 -1.24057,0.49356 -0.346825,0.333486 -0.546918,0.73367 -0.586936,1.187211 -0.546917,0 -1.093835,0.01334 -1.627413,0.02668 -0.546917,0.01334 -1.093835,0.01334 -1.640752,0.01334 -0.04002,0 -0.09338,0.01334 -0.146734,0.02668 -0.0533599,0.02668 -0.0800399,0.04002 -0.0800399,0.05336 v 0.146734 c 0,0.02668 0.02668,0.05336 0.0800399,0.0667 0.05335,0.01334 0.106716,0.01334 0.146734,0.01334 0.533577,0 1.027137,-0.01334 1.480678,-0.04002 0.440202,-0.02668 1.040478,-0.02668 1.800827,-0.02668 0.02668,0.480221 0.226771,0.880404 0.573596,1.200551 0.346826,0.320147 0.760349,0.48022 1.24057,0.48022 0.480219,0 0.907082,-0.160073 1.253908,-0.48022 0.346826,-0.320147 0.546917,-0.72033 0.573597,-1.200551 0.506899,0 0.893743,0.01334 1.18721,0.01334 0.28013,0.01334 0.7069924,0.04002 1.2939274,0.09338 0.2801287,0.04002 0.5469177,0.120055 0.7870277,0.24011 0.240111,0.120055 0.360165,0.266789 0.360165,0.453542 0,0.08004 -0.02668,0.133394 -0.0667,0.160073 -0.05336,0.02668 -0.160073,0.01334 -0.333486,-0.04002 -0.173413,-0.04002 -0.333486,0 -0.480221,0.106716 -0.1467337,0.120055 -0.2134297,0.25345 -0.2134297,0.400183 0.01334,0.453542 0.2134297,0.666973 0.6136137,0.666973 0.333487,0.01334 0.573596,-0.106715 0.706991,-0.373504 0.133394,-0.26679 0.173413,-0.560258 0.106716,-0.907084 -0.06669,-0.320145 -0.266786,-0.546916 -0.613612,-0.70699 -0.120055,-0.05336 -0.266789,-0.09338 -0.440202,-0.146734 -0.186752,-0.05336 -0.3735037,-0.08004 -0.5602567,-0.106715 -0.333486,-0.02668 -0.6536334,-0.0667 -0.9604404,-0.09338 -0.306808,-0.02668 -0.773689,-0.04002 -1.400643,-0.04002 z m -3.254827,0 c 0.02668,-0.373504 0.186752,-0.680312 0.466882,-0.933761 0.266789,-0.25345 0.600275,-0.386845 0.97378,-0.386845 0.386843,0 0.72033,0.133395 1.000458,0.386845 0.266789,0.266789 0.426863,0.573596 0.453542,0.933761 z m 0,0.280129 h 2.894662 c -0.04002,0.373504 -0.200092,0.693651 -0.466881,0.947101 -0.280129,0.253449 -0.613615,0.373505 -0.987119,0.373505 -0.386845,0 -0.720331,-0.120056 -1.00046,-0.373505 -0.280128,-0.24011 -0.426863,-0.560257 -0.440202,-0.947101 z"
         id="path841"
         style="font-size:16.9333px;line-height:1.25;font-family:Neanes;-inkscape-font-specification:Neanes;white-space:pre;fill:#1d1f21;fill-opacity:1;stroke:#1d1f21;stroke-width:0.393882;stroke-miterlimit:4;stroke-dasharray:none;stroke-opacity:1" />
      <g
         id="g870"
         transform="matrix(0.4175289,0,0,0.4175289,-0.88054839,9.350377)">
        <path
           d="M 40.180591,6.1012961 V 7.730134 Q 39.229746,7.2753823 38.386389,7.0521406 37.543031,6.8288988 36.757551,6.8288988 q -1.364255,0 -2.108395,0.5291657 -0.735871,0.5291656 -0.735871,1.5048147 0,0.8185531 0.487825,1.2402318 0.496093,0.413411 1.868616,0.669725 l 1.008722,0.206706 q 1.868616,0.355533 2.753315,1.256768 0.892967,0.892967 0.892967,2.397782 0,1.794202 -1.207159,2.720242 -1.198891,0.92604 -3.522259,0.92604 -0.87643,0 -1.868616,-0.198437 -0.983917,-0.198438 -2.042249,-0.587044 v -1.719788 q 1.016991,0.570507 1.99264,0.859894 0.975649,0.289388 1.918225,0.289388 1.430401,0 2.207613,-0.562239 0.777212,-0.562238 0.777212,-1.604033 0,-0.909503 -0.562238,-1.422133 -0.553971,-0.512629 -1.827275,-0.768943 l -1.016991,-0.198438 q -1.868616,-0.372069 -2.703705,-1.165818 -0.83509,-0.793748 -0.83509,-2.2076124 0,-1.6371061 1.149282,-2.5796824 1.15755,-0.9425763 3.183262,-0.9425763 0.868162,0 1.769397,0.1570961 0.901236,0.157096 1.843812,0.4712881 z"
           id="path843-7"
           style="font-size:16.9333px;line-height:1.25;font-family:sans-serif;-inkscape-font-specification:sans-serif;white-space:pre;fill:#1d1f21;fill-opacity:1;stroke:#1d1f21;stroke-width:0.5;stroke-miterlimit:4;stroke-dasharray:none;stroke-opacity:1" />
        <path
           d="m 52.773079,6.6469981 v 1.7611294 q -0.843358,-0.7854802 -1.802471,-1.1740862 -0.950844,-0.388606 -2.025712,-0.388606 -2.116663,0 -3.241139,1.2981094 -1.124477,1.2898412 -1.124477,3.7372323 0,2.439123 1.124477,3.737232 1.124476,1.289841 3.241139,1.289841 1.074868,0 2.025712,-0.388606 0.959113,-0.388606 1.802471,-1.174086 v 1.744593 q -0.876431,0.595311 -1.860348,0.892967 -0.975649,0.297656 -2.067054,0.297656 -2.802924,0 -4.415225,-1.71152 -1.612302,-1.719789 -1.612302,-4.688077 0,-2.9765567 1.612302,-4.6880768 1.612301,-1.7197883 4.415225,-1.7197883 1.107941,0 2.08359,0.2976557 0.983917,0.2893874 1.843812,0.8764305 z"
           id="path845-5"
           style="font-size:16.9333px;line-height:1.25;font-family:sans-serif;-inkscape-font-specification:sans-serif;white-space:pre;fill:#1d1f21;fill-opacity:1;stroke:#1d1f21;stroke-width:0.5;stroke-miterlimit:4;stroke-dasharray:none;stroke-opacity:1" />
      </g>
    </g>
  </g>
</svg>
