<?xml version="1.0" encoding="UTF-8" standalone="no"?>
<svg
   xmlns:dc="http://purl.org/dc/elements/1.1/"
   xmlns:cc="http://creativecommons.org/ns#"
   xmlns:rdf="http://www.w3.org/1999/02/22-rdf-syntax-ns#"
   xmlns:svg="http://www.w3.org/2000/svg"
   xmlns="http://www.w3.org/2000/svg"
   width="71.829002"
   height="48.405998"
   viewBox="0 0 19.004756 12.807421"
   version="1.1"
   id="svg8">
  <defs
     id="defs2">
    <rect
       x="14.176712"
       y="8.8012085"
       width="158.68498"
       height="87.905449"
       id="rect835" />
  </defs>
  <metadata
     id="metadata5">
    <rdf:RDF>
      <cc:Work
         rdf:about="">
        <dc:format>image/svg+xml</dc:format>
        <dc:type
           rdf:resource="http://purl.org/dc/dcmitype/StillImage" />
        <dc:title></dc:title>
      </cc:Work>
    </rdf:RDF>
  </metadata>
  <g
     id="layer1">
    <g
       aria-label=""
       id="text833"
       style="font-size:16.9333px;line-height:1.25;font-family:FontAwesome;-inkscape-font-specification:FontAwesome;white-space:pre;shape-inside:url(#rect835);fill:#1d1f21;fill-opacity:1;stroke:none"
       transform="matrix(0.49218847,0,0,0.49218847,-1.0466525,-3.1369171)">
      <path
         d="m 28.453804,20.895996 c 0,-0.16064 -0.132292,-0.302381 -0.302381,-0.302381 h -1.814282 c -0.141741,0 -0.236234,0.08505 -0.283481,0.217336 -0.16064,0.377976 -0.274033,0.737052 -0.500818,1.105578 -0.878793,1.436307 -2.437941,2.30565 -4.119932,2.30565 -1.218971,0 -2.400144,-0.472469 -3.288387,-1.304015 l 1.294566,-1.294566 c 0.113393,-0.113392 0.179539,-0.264583 0.179539,-0.425222 0,-0.330729 -0.274033,-0.604761 -0.604761,-0.604761 h -4.233325 c -0.330729,0 -0.604761,0.274032 -0.604761,0.604761 v 4.233325 c 0,0.330728 0.274032,0.604761 0.604761,0.604761 0.16064,0 0.31183,-0.06615 0.425222,-0.179539 l 1.218971,-1.218971 c 1.341813,1.275668 3.127747,2.00327 4.970377,2.00327 3.486824,0 6.246045,-2.333998 7.049242,-5.679081 0.0095,-0.0189 0.0095,-0.04725 0.0095,-0.06614 z m 0.236234,-7.559509 c 0,-0.330729 -0.274032,-0.604761 -0.60476,-0.604761 -0.16064,0 -0.31183,0.06615 -0.425223,0.179538 l -1.22842,1.218971 c -1.341813,-1.266218 -3.146645,-2.00327 -4.998725,-2.00327 -3.486824,0 -6.274393,2.324549 -7.08704,5.679081 0,0.0189 0,0.04725 0,0.06615 0,0.16064 0.132292,0.30238 0.302381,0.30238 h 1.880427 c 0.141741,0 0.236235,-0.08504 0.283482,-0.217336 0.16064,-0.377975 0.274032,-0.737052 0.500817,-1.105578 0.878793,-1.436306 2.437942,-2.30565 4.119933,-2.30565 1.218971,0 2.400144,0.46302 3.297836,1.294566 l -1.304016,1.304015 c -0.113392,0.113393 -0.179538,0.264583 -0.179538,0.425223 0,0.330728 0.274032,0.60476 0.604761,0.60476 h 4.233325 c 0.330728,0 0.60476,-0.274032 0.60476,-0.60476 z"
         id="path839"
         style="fill:#1d1f21;fill-opacity:1;stroke:none" />
    </g>
  </g>
</svg>
