<?xml version="1.0" encoding="UTF-8" standalone="no"?>
<svg
   xmlns:dc="http://purl.org/dc/elements/1.1/"
   xmlns:cc="http://creativecommons.org/ns#"
   xmlns:rdf="http://www.w3.org/1999/02/22-rdf-syntax-ns#"
   xmlns:svg="http://www.w3.org/2000/svg"
   xmlns="http://www.w3.org/2000/svg"
   width="71.829002"
   height="48.405998"
   viewBox="0 0 19.004756 12.807421"
   version="1.1"
   id="svg8">
  <defs
     id="defs2">
    <rect
       x="8.8569365"
       y="12.407811"
       width="407.32596"
       height="110.995"
       id="rect841" />
    <rect
       x="6.0549321"
       y="7.0818629"
       width="187.61836"
       height="273.24783"
       id="rect835" />
  </defs>
  <metadata
     id="metadata5">
    <rdf:RDF>
      <cc:Work
         rdf:about="">
        <dc:format>image/svg+xml</dc:format>
        <dc:type
           rdf:resource="http://purl.org/dc/dcmitype/StillImage" />
        <dc:title></dc:title>
      </cc:Work>
    </rdf:RDF>
  </metadata>
  <g
     id="layer1">
    <g
       id="g1398"
       transform="translate(-133.6066,-97.102113)">
      <path
         d="m 141.43462,105.38183 h -4.47039 l 2.35373,-5.24933 z m 1.6256,1.08373 -3.38666,-8.466654 -3.79306,8.466654 z m 1.72719,-4.99533 c -0.16933,0.3556 -0.27093,0.82973 -0.3048,1.40547 -0.0339,0.42333 -0.0508,0.77893 -0.0508,1.04986 0,0.27093 0.0339,0.64347 0.11854,1.1176 0.0677,0.4572 0.27093,0.88053 0.62653,1.27 0.0508,0.0677 0.16933,0.11853 0.3556,0.13546 0.16933,0.0169 0.3048,0.0169 0.38946,0.0169 0.27094,0 0.508,-0.1524 0.67734,-0.4572 0.13546,-0.25399 0.18626,-0.49106 0.16933,-0.71119 -0.0339,-0.22014 -0.11853,-0.3556 -0.27093,-0.38947 -0.16934,-0.0339 -0.32174,0.0677 -0.49107,0.28787 -0.16933,0.23706 -0.3048,0.3556 -0.44026,0.3556 -0.23707,0.0508 -0.4064,-0.0339 -0.49107,-0.27094 -0.0339,-0.1016 -0.0847,-0.254 -0.1524,-0.47413 -0.0677,-0.22013 -0.0677,-0.49107 0.0339,-0.8128 0.0677,-0.254 0.13546,-0.44026 0.22013,-0.57573 0.0677,-0.11853 0.254,-0.3556 0.52493,-0.69427 0.0677,-0.1016 0.1524,-0.27093 0.22013,-0.49106 0.0677,-0.2032 0.0677,-0.4064 0.0339,-0.57573 -0.13547,-0.37254 -0.33866,-0.54187 -0.62653,-0.508 -0.28787,0.0508 -0.47413,0.1524 -0.54187,0.32173 z"
         id="path887-0"
         style="font-size:16.9333px;line-height:1.25;font-family:Neanes;-inkscape-font-specification:Neanes;white-space:pre;shape-inside:url(#rect841);fill:#1d1f21;fill-opacity:1;stroke:#1d1f21;stroke-width:0.7;stroke-miterlimit:4;stroke-dasharray:none;stroke-opacity:1" />
      <path
         d="m 148.86834,100.94037 h 0.27093 l 0.8636,-1.76106 c 0.254,-0.507999 0.4064,-0.846665 0.4572,-0.999065 0.0339,-0.1016 0.0677,-0.2032 0.0677,-0.3048 -0.0169,-0.118533 -0.0677,-0.220132 -0.1524,-0.304799 -0.0847,-0.06773 -0.2032,-0.118533 -0.33867,-0.118533 -0.18627,0 -0.3556,0.06773 -0.49107,0.169333 -0.1524,0.118533 -0.254,0.304799 -0.32173,0.541866 -0.0677,0.186266 -0.11853,0.524932 -0.16933,1.015998 z"
         id="path889-2"
         style="font-size:16.9333px;line-height:1.25;font-family:Neanes;-inkscape-font-specification:Neanes;white-space:pre;shape-inside:url(#rect841);fill:#1d1f21;fill-opacity:1;stroke:#1d1f21;stroke-width:0.7;stroke-miterlimit:4;stroke-dasharray:none;stroke-opacity:1" />
    </g>
  </g>
</svg>
