<?xml version="1.0" encoding="UTF-8" standalone="no"?>
<svg
   xmlns:dc="http://purl.org/dc/elements/1.1/"
   xmlns:cc="http://creativecommons.org/ns#"
   xmlns:rdf="http://www.w3.org/1999/02/22-rdf-syntax-ns#"
   xmlns:svg="http://www.w3.org/2000/svg"
   xmlns="http://www.w3.org/2000/svg"
   width="71.829002"
   height="48.405998"
   viewBox="0 0 19.004756 12.807421"
   version="1.1"
   id="svg8">
  <defs
     id="defs2">
    <rect
       x="8.8569365"
       y="12.407811"
       width="407.32596"
       height="110.995"
       id="rect841" />
    <rect
       x="6.0549321"
       y="7.0818629"
       width="187.61836"
       height="273.24783"
       id="rect835" />
  </defs>
  <metadata
     id="metadata5">
    <rdf:RDF>
      <cc:Work
         rdf:about="">
        <dc:format>image/svg+xml</dc:format>
        <dc:type
           rdf:resource="http://purl.org/dc/dcmitype/StillImage" />
        <dc:title></dc:title>
      </cc:Work>
    </rdf:RDF>
  </metadata>
  <g
     id="layer1">
    <g
       id="g1414"
       transform="translate(-104.44902,-60.098822)">
      <path
         d="m 115.10131,68.915654 -2.7432,-6.468521 -3.06492,6.468521 z m -1.30387,-0.761999 h -3.58986 l 1.8796,-3.996259 z"
         id="path863-6"
         style="font-size:16.9333px;line-height:1.25;font-family:Neanes;-inkscape-font-specification:Neanes;white-space:pre;shape-inside:url(#rect841);fill:#1d1f21;fill-opacity:1;stroke:#1d1f21;stroke-width:0.7;stroke-miterlimit:4;stroke-dasharray:none;stroke-opacity:1" />
      <path
         d="m 116.82851,63.920334 c -0.16933,0.355599 -0.27093,0.829731 -0.3048,1.405464 -0.0339,0.423332 -0.0508,0.778931 -0.0508,1.049864 0,0.270933 0.0339,0.643466 0.11853,1.117598 0.0677,0.457199 0.27094,0.880532 0.62654,1.269997 0.0508,0.06773 0.16933,0.118534 0.3556,0.135467 0.16933,0.01693 0.3048,0.01693 0.38946,0.01693 0.27093,0 0.508,-0.1524 0.67733,-0.457199 0.13547,-0.253999 0.18627,-0.491066 0.16934,-0.711199 -0.0339,-0.220132 -0.11854,-0.355599 -0.27094,-0.389465 -0.16933,-0.03387 -0.32173,0.06773 -0.49106,0.287866 -0.16933,0.237066 -0.3048,0.355599 -0.44027,0.355599 -0.23706,0.0508 -0.4064,-0.03387 -0.49106,-0.270933 -0.0339,-0.1016 -0.0847,-0.253999 -0.1524,-0.474132 -0.0677,-0.220133 -0.0677,-0.491066 0.0339,-0.812799 0.0677,-0.253999 0.13547,-0.440265 0.22014,-0.575732 0.0677,-0.118533 0.254,-0.355599 0.52493,-0.694265 0.0677,-0.1016 0.1524,-0.270933 0.22013,-0.491066 0.0677,-0.203199 0.0677,-0.406399 0.0339,-0.575732 -0.13547,-0.372533 -0.33867,-0.541866 -0.62653,-0.507999 -0.28787,0.0508 -0.47414,0.1524 -0.54187,0.321733 z"
         id="path855-6"
         style="font-size:16.9333px;line-height:1.25;font-family:Neanes;-inkscape-font-specification:Neanes;white-space:pre;shape-inside:url(#rect841);fill:#1d1f21;fill-opacity:1;stroke:#1d1f21;stroke-width:0.7;stroke-miterlimit:4;stroke-dasharray:none;stroke-opacity:1" />
    </g>
  </g>
</svg>
