<?xml version="1.0" encoding="UTF-8" standalone="no"?>
<svg
   xmlns:dc="http://purl.org/dc/elements/1.1/"
   xmlns:cc="http://creativecommons.org/ns#"
   xmlns:rdf="http://www.w3.org/1999/02/22-rdf-syntax-ns#"
   xmlns:svg="http://www.w3.org/2000/svg"
   xmlns="http://www.w3.org/2000/svg"
   width="25.667999"
   height="25.492001"
   viewBox="0 0 6.7913246 6.7447587"
   version="1.1"
   id="svg8">
  <defs
     id="defs2">
    <rect
       x="3.0253625"
       y="3.6083589"
       width="188.11082"
       height="85.324516"
       id="rect835" />
  </defs>
  <metadata
     id="metadata5">
    <rdf:RDF>
      <cc:Work
         rdf:about="">
        <dc:format>image/svg+xml</dc:format>
        <dc:type
           rdf:resource="http://purl.org/dc/dcmitype/StillImage" />
        <dc:title></dc:title>
      </cc:Work>
    </rdf:RDF>
  </metadata>
  <g
     id="layer1">
    <path
       d="m 3.143781,1.2313813 c 0,-0.1377479 -0.114134,-0.25188186 -0.251882,-0.25188186 -0.06691,0 -0.129876,0.02755 -0.177104,0.074777 L 1.4042218,2.3648502 H 0.37307985 c -0.1377477,0 -0.2518816,0.1141339 -0.2518816,0.2518816 v 1.5112914 c 0,0.137748 0.1141339,0.251882 0.2518816,0.251882 H 1.4042218 l 1.3105732,1.310573 c 0.04723,0.04723 0.110198,0.07478 0.177104,0.07478 0.137748,0 0.251882,-0.114134 0.251882,-0.251882 z m 1.511292,2.1409961 c 0,-0.3935652 -0.240076,-0.7792594 -0.610027,-0.9248785 -0.03148,-0.015744 -0.06691,-0.01968 -0.09839,-0.01968 -0.137748,0 -0.251882,0.1101984 -0.251882,0.2518816 0,0.2991101 0.456536,0.2164614 0.456536,0.6926753 0,0.4762144 -0.456536,0.3935664 -0.456536,0.6926754 0,0.141684 0.114134,0.251882 0.251882,0.251882 0.03148,0 0.06691,-0.0039 0.09839,-0.01968 0.369951,-0.149555 0.610027,-0.531313 0.610027,-0.9248797 z m 1.0075266,0 c 0,-0.7989377 -0.4801496,-1.5427765 -1.2200526,-1.8536933 -0.03148,-0.011807 -0.06691,-0.019678 -0.102327,-0.019678 -0.137748,0 -0.251882,0.1141341 -0.251882,0.2518818 0,0.1101984 0.06297,0.1849758 0.153491,0.2322037 0.106262,0.055099 0.204654,0.102327 0.299109,0.1731689 0.38963,0.2833673 0.617898,0.7359673 0.617898,1.2161171 0,0.4801496 -0.228268,0.9327506 -0.617898,1.2161176 -0.09445,0.07084 -0.192847,0.118069 -0.299109,0.173169 -0.09052,0.04723 -0.153491,0.122005 -0.153491,0.232203 0,0.137748 0.114134,0.251882 0.255818,0.251882 0.03148,0 0.06691,-0.0079 0.09839,-0.01968 0.739903,-0.310917 1.2200526,-1.054756 1.2200526,-1.8536937 z m 1.007527,0 c 0,-1.2082457 -0.720224,-2.3023578 -1.8300786,-2.77857216 -0.03148,-0.011807 -0.06691,-0.019678 -0.102327,-0.019678 -0.137748,0 -0.251882,0.114134 -0.251882,0.2518819 0,0.114134 0.05903,0.17710456 0.153491,0.23220366 0.0551,0.031485 0.11807,0.051164 0.177104,0.082649 0.110198,0.059035 0.220397,0.1259411 0.322724,0.2007185 0.6454466,0.4762143 1.0272056,1.2279245 1.0272056,2.0307977 0,0.8028742 -0.381759,1.5545842 -1.0272056,2.0307992 -0.102327,0.07478 -0.212526,0.141683 -0.322724,0.200718 -0.05903,0.03148 -0.122005,0.05116 -0.177104,0.08265 -0.09446,0.0551 -0.153491,0.11807 -0.153491,0.232204 0,0.137748 0.114134,0.251882 0.251882,0.251882 0.03542,0 0.07084,-0.0079 0.102327,-0.01968 1.1098546,-0.476215 1.8300786,-1.570327 1.8300786,-2.7785738 z"
       id="path841"
       style="font-size:16.9333px;line-height:1.25;font-family:FontAwesome;-inkscape-font-specification:FontAwesome;white-space:pre;fill:#1d1f21;fill-opacity:1;stroke:none;stroke-width:0.416498" />
  </g>
</svg>
