<?xml version="1.0" encoding="UTF-8" standalone="no"?>
<svg
   xmlns:dc="http://purl.org/dc/elements/1.1/"
   xmlns:cc="http://creativecommons.org/ns#"
   xmlns:rdf="http://www.w3.org/1999/02/22-rdf-syntax-ns#"
   xmlns:svg="http://www.w3.org/2000/svg"
   xmlns="http://www.w3.org/2000/svg"
   width="25.667999"
   height="25.492001"
   viewBox="0 0 6.7913246 6.7447587"
   version="1.1"
   id="svg8">
  <defs
     id="defs2">
    <rect
       x="3.0253625"
       y="3.6083589"
       width="188.11082"
       height="85.324516"
       id="rect835" />
  </defs>
  <metadata
     id="metadata5">
    <rdf:RDF>
      <cc:Work
         rdf:about="">
        <dc:format>image/svg+xml</dc:format>
        <dc:type
           rdf:resource="http://purl.org/dc/dcmitype/StillImage" />
        <dc:title></dc:title>
      </cc:Work>
    </rdf:RDF>
  </metadata>
  <g
     id="layer1">
    <path
       d="m 4.1513081,1.2313819 c 0,-0.1377479 -0.1141339,-0.25188186 -0.2518818,-0.25188186 -0.066906,0 -0.1298766,0.02755 -0.1771045,0.074777 L 2.4117488,2.3648508 H 1.3806073 c -0.1377479,0 -0.2518819,0.1141339 -0.2518819,0.2518816 v 1.511291 c 0,0.137748 0.114134,0.251882 0.2518819,0.251882 h 1.0311415 l 1.310573,1.310573 c 0.047228,0.04723 0.1101984,0.07478 0.1771045,0.07478 0.1377479,0 0.2518818,-0.114134 0.2518818,-0.251882 z M 5.6625994,3.372378 c 0,-0.3935652 -0.2400747,-0.7792595 -0.6100261,-0.9248785 -0.031483,-0.015744 -0.066906,-0.01968 -0.098391,-0.01968 -0.1377481,0 -0.251882,0.1101984 -0.251882,0.2518816 0,0.2991101 0.456536,0.2164614 0.456536,0.6926753 0,0.476214 -0.456536,0.393566 -0.456536,0.692675 0,0.141684 0.1141339,0.251882 0.251882,0.251882 0.031483,0 0.066906,-0.0039 0.098391,-0.01968 0.3699514,-0.149555 0.6100261,-0.531313 0.6100261,-0.9248793 z"
       id="path839"
       style="font-size:16.9333px;line-height:1.25;font-family:FontAwesome;-inkscape-font-specification:FontAwesome;white-space:pre;fill:#1d1f21;fill-opacity:1;stroke:none;stroke-width:0.416498" />
  </g>
</svg>
