<?xml version="1.0" encoding="UTF-8" standalone="no"?>
<svg
   xmlns:dc="http://purl.org/dc/elements/1.1/"
   xmlns:cc="http://creativecommons.org/ns#"
   xmlns:rdf="http://www.w3.org/1999/02/22-rdf-syntax-ns#"
   xmlns:svg="http://www.w3.org/2000/svg"
   xmlns="http://www.w3.org/2000/svg"
   width="71.829002"
   height="48.405998"
   viewBox="0 0 19.004756 12.807421"
   version="1.1"
   id="svg8">
  <defs
     id="defs2">
    <rect
       x="8.8569365"
       y="12.407811"
       width="407.32596"
       height="110.995"
       id="rect841" />
    <rect
       x="6.0549321"
       y="7.0818629"
       width="187.61836"
       height="273.24783"
       id="rect835" />
  </defs>
  <metadata
     id="metadata5">
    <rdf:RDF>
      <cc:Work
         rdf:about="">
        <dc:format>image/svg+xml</dc:format>
        <dc:type
           rdf:resource="http://purl.org/dc/dcmitype/StillImage" />
        <dc:title></dc:title>
      </cc:Work>
    </rdf:RDF>
  </metadata>
  <g
     id="layer1">
    <path
       d="m 8.5710435,4.498659 c 0.44027,-0.1524 0.77893,-0.4064 1.016,-0.745066 0.23706,-0.338666 0.3556,-0.711198 0.3556,-1.151464 0,-0.474132 -0.1524,-0.914398 -0.44027,-1.303864 -0.3048,-0.372533 -0.72813,-0.643465 -1.27,-0.812798 C 7.8598435,0.400797 7.3687835,0.35 6.7761135,0.35 h -3.25119 v 0.220133 h 0.27093 c 0.27093,0 0.49106,0.1016 0.64346,0.270933 0.1016,0.169333 0.16934,0.491066 0.16934,0.999065 v 5.4694552 c 0,0.474133 -0.0508,0.795866 -0.13547,0.931332 -0.1524,0.237066 -0.37253,0.338666 -0.67733,0.338666 h -0.27093 v 0.237066 h 3.53906 c 0.82973,0 1.45626,-0.08467 1.89653,-0.270933 0.40639,-0.169333 0.72813,-0.457199 0.96519,-0.846665 0.2370695,-0.372532 0.3555995,-0.761998 0.3555995,-1.202264 0,-0.541866 -0.18626,-1.0159981 -0.5418595,-1.4054641 -0.27094,-0.2709331 -0.6604,-0.4571991 -1.1684,-0.5926651 z M 5.6754535,4.159993 V 0.891866 c 0.28786,-0.08467 0.60959,-0.135467 0.98213,-0.135467 0.67733,0 1.20226,0.186267 1.57479,0.524933 0.3556,0.372532 0.54187,0.795865 0.54187,1.269997 0,0.338666 -0.0847,0.626532 -0.22013,0.897465 -0.1524,0.270933 -0.3556,0.457199 -0.62654,0.592666 -0.27093,0.135466 -0.67733,0.203199 -1.21919,0.203199 -0.4064,0 -0.74507,-0.01693 -1.03293,-0.08467 z m 0,4.0470582 V 4.735725 c 0.16933,-0.03387 0.47413,-0.06773 0.93133,-0.06773 0.54186,0 0.99906,0.101599 1.37159,0.270932 0.3556,0.1693331 0.6096,0.4064001 0.77894,0.7111991 0.1524,0.3386661 0.23706,0.6603991 0.23706,0.9651981 0,0.507999 -0.18626,0.914398 -0.52493,1.253064 -0.3556,0.338666 -0.8636,0.507999 -1.54093,0.507999 -0.4064,0 -0.8128,-0.0508 -1.25306,-0.169333 z m 8.0941095,-2.285995 c 0.28787,0.186266 0.508,0.389466 0.67733,0.592665 0.13547,0.220133 0.22014,0.474133 0.22014,0.761999 0,0.355599 -0.11854,0.643465 -0.33867,0.846665 -0.23706,0.237066 -0.52493,0.338666 -0.8636,0.321733 -0.3556,0 -0.64346,-0.1016 -0.8636,-0.3048 -0.23706,-0.186266 -0.33866,-0.440266 -0.33866,-0.745065 0,-0.270933 0.1016,-0.507999 0.32173,-0.745065 0.2032,-0.2032 0.6096,-0.440266 1.18533,-0.728132 z m -0.93133,-0.3725331 c -0.47413,0.2370661 -0.8128,0.4910661 -0.99906,0.7450651 -0.23707,0.270933 -0.33867,0.575733 -0.33867,0.880532 0,0.474132 0.18627,0.863598 0.57573,1.168398 0.37254,0.321732 0.82973,0.474132 1.40547,0.474132 0.57573,0 1.06679,-0.135466 1.43933,-0.423332 0.37253,-0.270933 0.5588,-0.643466 0.5588,-1.100665 0,-0.321733 -0.1016,-0.609599 -0.3048,-0.863598 -0.22014,-0.254 -0.5588,-0.507999 -1.03293,-0.7789321 0.42333,-0.2032 0.76199,-0.423332 0.99906,-0.6942651 0.22013,-0.237066 0.33867,-0.507999 0.33867,-0.829732 0,-0.118533 -0.0169,-0.253999 -0.0508,-0.389466 -0.0339,-0.1016 -0.1016,-0.253999 -0.16934,-0.423332 h -0.4572 c 0,0.06773 0,0.135466 0,0.186266 0,0.0508 0.0169,0.08467 0.0169,0.1016 0,0.0508 0.0169,0.1016 0.0169,0.152399 0,0.3048 -0.13546,0.575733 -0.38946,0.812799 -0.28787,0.270933 -0.69427,0.5079991 -1.20227,0.7281321 -0.38946,-0.169333 -0.6604,-0.3894661 -0.82973,-0.6265321 -0.18627,-0.237067 -0.27093,-0.524933 -0.27093,-0.880532 0,0 0,-0.135466 0.0339,-0.372533 V 3.313328 h -0.508 c -0.0677,0.101599 -0.1016,0.220133 -0.11853,0.321732 -0.0339,0.135467 -0.0508,0.237067 -0.0508,0.338666 0,0.321733 0.1016,0.609599 0.33866,0.863599 0.18627,0.2370661 0.52493,0.4741321 0.99907,0.7111981 z"
       id="path851-7"
       style="font-size:16.9333px;line-height:1.25;font-family:Neanes;-inkscape-font-specification:Neanes;white-space:pre;shape-inside:url(#rect841);fill:#1d1f21;fill-opacity:1;stroke:#1d1f21;stroke-width:0.7;stroke-miterlimit:4;stroke-dasharray:none;stroke-opacity:1" />
  </g>
</svg>
