<?xml version="1.0" encoding="UTF-8" standalone="no"?>
<svg
   xmlns:dc="http://purl.org/dc/elements/1.1/"
   xmlns:cc="http://creativecommons.org/ns#"
   xmlns:rdf="http://www.w3.org/1999/02/22-rdf-syntax-ns#"
   xmlns:svg="http://www.w3.org/2000/svg"
   xmlns="http://www.w3.org/2000/svg"
   width="71.829002"
   height="48.405998"
   viewBox="0 0 19.004756 12.807421"
   version="1.1"
   id="svg8">
  <defs
     id="defs2">
    <rect
       x="8.8569365"
       y="12.407811"
       width="407.32596"
       height="110.995"
       id="rect841" />
    <rect
       x="6.0549321"
       y="7.0818629"
       width="187.61836"
       height="273.24783"
       id="rect835" />
  </defs>
  <metadata
     id="metadata5">
    <rdf:RDF>
      <cc:Work
         rdf:about="">
        <dc:format>image/svg+xml</dc:format>
        <dc:type
           rdf:resource="http://purl.org/dc/dcmitype/StillImage" />
        <dc:title></dc:title>
      </cc:Work>
    </rdf:RDF>
  </metadata>
  <g
     id="layer1">
    <g
       id="g1390"
       transform="translate(-92.785167,-97.102113)">
      <path
         d="m 99.51051,101.60077 c 0.44027,-0.1524 0.77894,-0.4064 1.016,-0.74506 0.23707,-0.33867 0.3556,-0.7112 0.3556,-1.151468 0,-0.474132 -0.1524,-0.914398 -0.44026,-1.303864 -0.3048,-0.372533 -0.72814,-0.643465 -1.27,-0.812798 -0.37253,-0.08467 -0.8636,-0.135467 -1.45626,-0.135467 h -3.2512 v 0.220133 h 0.27093 c 0.27094,0 0.49107,0.1016 0.64347,0.270933 0.1016,0.169333 0.16933,0.491066 0.16933,0.999065 v 5.469456 c 0,0.47413 -0.0508,0.79587 -0.13546,0.93133 -0.1524,0.23707 -0.37254,0.33867 -0.67734,0.33867 h -0.27093 v 0.23706 h 3.53906 c 0.82973,0 1.45627,-0.0847 1.89653,-0.27093 0.4064,-0.16933 0.72813,-0.4572 0.9652,-0.84666 0.23707,-0.37254 0.3556,-0.762 0.3556,-1.20227 0,-0.54186 -0.18627,-1.016 -0.54187,-1.40546 -0.27093,-0.27094 -0.6604,-0.4572 -1.1684,-0.59267 z m -2.89559,-0.33866 v -3.268131 c 0.28787,-0.08467 0.6096,-0.135467 0.98213,-0.135467 0.67733,0 1.20227,0.186267 1.5748,0.524933 0.3556,0.372532 0.54186,0.795865 0.54186,1.269997 0,0.338666 -0.0847,0.626528 -0.22013,0.897468 -0.1524,0.27093 -0.3556,0.4572 -0.62653,0.59266 -0.27093,0.13547 -0.67733,0.2032 -1.2192,0.2032 -0.4064,0 -0.74506,-0.0169 -1.03293,-0.0847 z m 0,4.04705 v -3.47132 c 0.16933,-0.0339 0.47413,-0.0677 0.93133,-0.0677 0.54187,0 0.99907,0.1016 1.3716,0.27093 0.3556,0.16933 0.6096,0.4064 0.77893,0.7112 0.1524,0.33867 0.23707,0.6604 0.23707,0.9652 0,0.508 -0.18627,0.9144 -0.52493,1.25306 -0.3556,0.33867 -0.8636,0.508 -1.54094,0.508 -0.40639,0 -0.81279,-0.0508 -1.25306,-0.16933 z m 8.09412,-2.28599 c 0.28786,0.18627 0.508,0.38947 0.67733,0.59266 0.13547,0.22014 0.22013,0.47414 0.22013,0.762 0,0.3556 -0.11853,0.64347 -0.33866,0.84667 -0.23707,0.23706 -0.52494,0.33866 -0.8636,0.32173 -0.3556,0 -0.64347,-0.1016 -0.8636,-0.3048 -0.23707,-0.18626 -0.33867,-0.44026 -0.33867,-0.74506 0,-0.27094 0.1016,-0.508 0.32174,-0.74507 0.2032,-0.2032 0.6096,-0.44026 1.18533,-0.72813 z m -0.93133,-0.37253 c -0.47414,0.23706 -0.8128,0.49106 -0.99907,0.74506 -0.23706,0.27093 -0.33866,0.57573 -0.33866,0.88053 0,0.47414 0.18626,0.8636 0.57573,1.1684 0.37253,0.32173 0.82973,0.47413 1.40546,0.47413 0.57573,0 1.0668,-0.13546 1.43933,-0.42333 0.37254,-0.27093 0.5588,-0.64346 0.5588,-1.10066 0,-0.32174 -0.1016,-0.6096 -0.3048,-0.8636 -0.22013,-0.254 -0.5588,-0.508 -1.03293,-0.77893 0.42333,-0.2032 0.762,-0.42334 0.99907,-0.69427 0.22013,-0.23706 0.33866,-0.508 0.33866,-0.82973 0,-0.11853 -0.0169,-0.254 -0.0508,-0.38947 -0.0339,-0.1016 -0.1016,-0.254 -0.16933,-0.42333 h -0.4572 c 0,0.0677 0,0.13547 0,0.18627 0,0.0508 0.0169,0.0847 0.0169,0.1016 0,0.0508 0.0169,0.1016 0.0169,0.1524 0,0.3048 -0.13547,0.57573 -0.38947,0.8128 -0.28787,0.27093 -0.69427,0.50799 -1.20226,0.72813 -0.38947,-0.16934 -0.6604,-0.38947 -0.82974,-0.62653 -0.18626,-0.23707 -0.27093,-0.52494 -0.27093,-0.88054 0,0 0,-0.13546 0.0339,-0.37253 v -0.1016 h -0.508 c -0.0677,0.1016 -0.1016,0.22013 -0.11853,0.32173 -0.0339,0.13547 -0.0508,0.23707 -0.0508,0.33867 0,0.32173 0.1016,0.6096 0.33866,0.8636 0.18627,0.23706 0.52493,0.47413 0.99907,0.7112 z"
         id="path879-8"
         style="font-size:16.9333px;line-height:1.25;font-family:Neanes;-inkscape-font-specification:Neanes;white-space:pre;shape-inside:url(#rect841);fill:#1d1f21;fill-opacity:1;stroke:#1d1f21;stroke-width:0.7;stroke-miterlimit:4;stroke-dasharray:none;stroke-opacity:1" />
      <path
         d="m 108.45127,100.94037 h 0.27094 l 0.86359,-1.76106 c 0.254,-0.507999 0.4064,-0.846665 0.4572,-0.999065 0.0339,-0.1016 0.0677,-0.2032 0.0677,-0.3048 -0.0169,-0.118533 -0.0677,-0.220132 -0.1524,-0.304799 -0.0847,-0.06773 -0.2032,-0.118533 -0.33867,-0.118533 -0.18627,0 -0.3556,0.06773 -0.49106,0.169333 -0.1524,0.118533 -0.254,0.304799 -0.32174,0.541866 -0.0677,0.186266 -0.11853,0.524932 -0.16933,1.015998 z"
         id="path881-7"
         style="font-size:16.9333px;line-height:1.25;font-family:Neanes;-inkscape-font-specification:Neanes;white-space:pre;shape-inside:url(#rect841);fill:#1d1f21;fill-opacity:1;stroke:#1d1f21;stroke-width:0.7;stroke-miterlimit:4;stroke-dasharray:none;stroke-opacity:1" />
    </g>
  </g>
</svg>
