<?xml version="1.0" encoding="UTF-8" standalone="no"?>
<svg
   xmlns:dc="http://purl.org/dc/elements/1.1/"
   xmlns:cc="http://creativecommons.org/ns#"
   xmlns:rdf="http://www.w3.org/1999/02/22-rdf-syntax-ns#"
   xmlns:svg="http://www.w3.org/2000/svg"
   xmlns="http://www.w3.org/2000/svg"
   width="71.829002"
   height="48.405998"
   viewBox="0 0 19.004758 12.80742"
   version="1.1"
   id="svg8">
  <defs
     id="defs2">
    <rect
       x="8.8569365"
       y="12.407811"
       width="407.32596"
       height="110.995"
       id="rect841" />
    <rect
       x="6.0549321"
       y="7.0818629"
       width="187.61836"
       height="273.24783"
       id="rect835" />
  </defs>
  <metadata
     id="metadata5">
    <rdf:RDF>
      <cc:Work
         rdf:about="">
        <dc:format>image/svg+xml</dc:format>
        <dc:type
           rdf:resource="http://purl.org/dc/dcmitype/StillImage" />
        <dc:title></dc:title>
      </cc:Work>
    </rdf:RDF>
  </metadata>
  <g
     id="layer1">
    <g
       id="g1406"
       transform="translate(-74.914718,-59.55203)">
      <path
         d="m 87.185686,65.473268 c 0.28787,0.186266 0.508,0.389466 0.67734,0.592665 0.13546,0.220133 0.22013,0.474133 0.22013,0.761999 0,0.355599 -0.11853,0.643465 -0.33867,0.846665 -0.23706,0.237066 -0.52493,0.338666 -0.8636,0.321733 -0.3556,0 -0.64346,-0.1016 -0.86359,-0.3048 -0.23707,-0.186266 -0.338671,-0.440266 -0.338671,-0.745065 0,-0.270933 0.101601,-0.507999 0.321731,-0.745065 0.2032,-0.2032 0.6096,-0.440266 1.18533,-0.728132 z m -0.93133,-0.372533 c -0.47413,0.237066 -0.812797,0.491066 -0.999063,0.745065 -0.237066,0.270933 -0.338666,0.575733 -0.338666,0.880532 0,0.474132 0.186266,0.863598 0.575732,1.168398 0.372537,0.321732 0.829737,0.474132 1.405467,0.474132 0.57573,0 1.06679,-0.135466 1.43933,-0.423332 0.37253,-0.270933 0.5588,-0.643466 0.5588,-1.100665 0,-0.321733 -0.1016,-0.609599 -0.3048,-0.863598 -0.22014,-0.254 -0.5588,-0.507999 -1.03293,-0.778932 0.42333,-0.2032 0.76199,-0.423332 0.99906,-0.694265 0.22013,-0.237066 0.33867,-0.507999 0.33867,-0.829732 0,-0.118533 -0.0169,-0.253999 -0.0508,-0.389466 -0.0339,-0.1016 -0.1016,-0.253999 -0.16934,-0.423332 h -0.4572 v 0.186266 c 0,0.0508 0.0169,0.08467 0.0169,0.1016 0,0.0508 0.0169,0.1016 0.0169,0.152399 0,0.3048 -0.13546,0.575733 -0.38946,0.812799 -0.28787,0.270933 -0.69427,0.507999 -1.20227,0.728132 -0.38946,-0.169333 -0.6604,-0.389466 -0.82973,-0.626532 -0.186265,-0.237067 -0.270932,-0.524933 -0.270932,-0.880532 0,0 0,-0.135466 0.03387,-0.372533 V 62.86554 h -0.507999 c -0.06773,0.101599 -0.1016,0.220133 -0.118533,0.321732 -0.03387,0.135467 -0.0508,0.237067 -0.0508,0.338666 0,0.321733 0.1016,0.609599 0.338666,0.863599 0.186266,0.237066 0.524928,0.474132 0.999068,0.711198 z"
         id="path851-3"
         style="font-size:16.9333px;line-height:1.25;font-family:Neanes;-inkscape-font-specification:Neanes;white-space:pre;shape-inside:url(#rect841);fill:#1d1f21;fill-opacity:1;stroke:#1d1f21;stroke-width:0.7;stroke-miterlimit:4;stroke-dasharray:none;stroke-opacity:1" />
      <path
         d="m 82.173437,65.485706 c 0.254,0.0508 0.42333,0.186267 0.52493,0.4064 0.1016,0.220133 0.0508,0.575732 -0.1524,1.066798 -0.11853,0.270932 -0.3048,0.491065 -0.54187,0.660398 -0.23706,0.169333 -0.47413,0.254 -0.69426,0.220133 -0.4064,-0.03387 -0.508,-0.406399 -0.32173,-1.117598 0.1016,-0.355599 0.27093,-0.660398 0.508,-0.914398 0.23706,-0.237066 0.45719,-0.355599 0.67733,-0.321733 z m -0.52493,-2.624661 c 0.20319,-0.1524 0.37253,-0.270933 0.54186,-0.355599 0.1524,-0.08467 0.3556,-0.08467 0.59267,-0.01693 0.1524,0.06773 0.2032,0.220133 0.1524,0.474133 -0.0508,0.253999 -0.1524,0.372532 -0.3048,0.372532 -0.11854,0.01693 -0.27094,0.01693 -0.47414,0 -0.2032,-0.01693 -0.37253,-0.169333 -0.50799,-0.474132 z m -0.5588,0.677332 c 0.2032,0.03387 0.44026,0.1016 0.69426,0.186266 0.254,0.08467 0.57573,0.118533 0.9652,0.118533 0.44027,0 0.7112,-0.321732 0.8128,-0.965198 0.0847,-0.643465 -0.254,-0.982131 -0.99907,-0.999064 -0.82973,0 -1.47319,0.474132 -1.93039,1.456263 -0.47414,0.982132 -0.69427,1.94733 -0.69427,2.912528 0,0.609599 0.11854,1.100664 0.3556,1.507064 0.23707,0.406399 0.64347,0.609598 1.20227,0.609598 0.86359,0.03387 1.42239,-0.135466 1.69333,-0.474132 0.254,-0.338666 0.42333,-0.778932 0.49106,-1.286931 0.0847,-0.677332 -0.254,-1.185331 -0.99906,-1.523997 -0.74507,-0.321732 -1.43933,-0.169333 -2.0828,0.457199 0,-0.203199 0.0169,-0.491065 0.0847,-0.863598 0.0508,-0.372533 0.18626,-0.745065 0.4064,-1.134531 z"
         id="path859-7"
         style="font-size:16.9333px;line-height:1.25;font-family:Neanes;-inkscape-font-specification:Neanes;white-space:pre;shape-inside:url(#rect841);fill:#1d1f21;fill-opacity:1;stroke:#1d1f21;stroke-width:0.7;stroke-miterlimit:4;stroke-dasharray:none;stroke-opacity:1" />
    </g>
  </g>
</svg>
