<?xml version="1.0" encoding="UTF-8" standalone="no"?>
<svg
   xmlns:dc="http://purl.org/dc/elements/1.1/"
   xmlns:cc="http://creativecommons.org/ns#"
   xmlns:rdf="http://www.w3.org/1999/02/22-rdf-syntax-ns#"
   xmlns:svg="http://www.w3.org/2000/svg"
   xmlns="http://www.w3.org/2000/svg"
   width="25.667999"
   height="25.492001"
   viewBox="0 0 6.7913246 6.7447587"
   version="1.1"
   id="svg8">
  <defs
     id="defs2">
    <rect
       x="3.8221345"
       y="3.1780832"
       width="201.43996"
       height="92.238968"
       id="rect835" />
  </defs>
  <metadata
     id="metadata5">
    <rdf:RDF>
      <cc:Work
         rdf:about="">
        <dc:format>image/svg+xml</dc:format>
        <dc:type
           rdf:resource="http://purl.org/dc/dcmitype/StillImage" />
        <dc:title></dc:title>
      </cc:Work>
    </rdf:RDF>
  </metadata>
  <g
     id="layer1">
    <path
       d="m 2.9744462,3.5374594 c 0.3556,0.3048 0.778932,0.457199 1.253065,0.457199 0.524932,0 0.982131,-0.186266 1.354664,-0.575732 0.372532,-0.372533 0.575732,-0.829732 0.575732,-1.3715967 0,-0.541866 -0.2032,-0.999065 -0.575732,-1.3715975 C 5.2096422,0.3031996 4.7524432,0.1 4.2275112,0.1 c -0.541866,0 -0.999065,0.2031996 -1.388531,0.5757322 -0.389466,0.3894655 -0.575732,0.8466645 -0.575732,1.3715975 0,0.4402657 0.1524,0.8466647 0.423332,1.1853307 l -1.473197,1.422397 -0.49106505,0.457199 c -0.118534,0.135467 -0.118534,0.270933 0,0.372533 0.101599,0.118533 0.220132,0.118533 0.33866605,-0.01693 l 0.186266,-0.220133 z m 1.253065,-3.0310602 c 0.406399,0 0.761998,0.1523997 1.066798,0.4571991 0.287866,0.3047994 0.440265,0.6773324 0.440265,1.0837314 0,0.4233317 -0.152399,0.7789317 -0.440265,1.0837307 -0.3048,0.304799 -0.660399,0.440266 -1.066798,0.440266 -0.440266,0 -0.795865,-0.135467 -1.083732,-0.440266 -0.304799,-0.304799 -0.440265,-0.660399 -0.440265,-1.0837307 0,-0.406399 0.135466,-0.778932 0.440265,-1.0837314 0.3048,-0.3047994 0.660399,-0.4571991 1.083732,-0.4571991 z"
       id="path847"
       style="font-size:16.9333px;line-height:1.25;font-family:Neanes;-inkscape-font-specification:Neanes;white-space:pre;fill:#1d1f21;fill-opacity:1;stroke:#1d1f21;stroke-width:0.2;stroke-miterlimit:4;stroke-dasharray:none;stroke-opacity:1" />
  </g>
</svg>
