<?xml version="1.0" encoding="UTF-8" standalone="no"?>
<svg
   xmlns:dc="http://purl.org/dc/elements/1.1/"
   xmlns:cc="http://creativecommons.org/ns#"
   xmlns:rdf="http://www.w3.org/1999/02/22-rdf-syntax-ns#"
   xmlns:svg="http://www.w3.org/2000/svg"
   xmlns="http://www.w3.org/2000/svg"
   width="25.667999"
   height="25.492001"
   viewBox="0 0 6.7913246 6.7447587"
   version="1.1"
   id="svg8">
  <defs
     id="defs2">
    <rect
       x="3.8221345"
       y="3.1780832"
       width="201.43996"
       height="92.238968"
       id="rect835" />
  </defs>
  <metadata
     id="metadata5">
    <rdf:RDF>
      <cc:Work
         rdf:about="">
        <dc:format>image/svg+xml</dc:format>
        <dc:type
           rdf:resource="http://purl.org/dc/dcmitype/StillImage" />
        <dc:title></dc:title>
      </cc:Work>
    </rdf:RDF>
  </metadata>
  <g
     id="layer1">
    <path
       d="m 1.8145153,4.6719914 0.812799,0.846665 c 0.101599,0.1016 0.203199,0.1016 0.321732,0 0.1016,-0.1016 0.1016,-0.2032 0,-0.321733 l -0.812798,-0.829731 0.812798,-0.829732 c 0.3556,0.304799 0.778932,0.457199 1.253065,0.457199 0.541865,0 0.999064,-0.186266 1.38853,-0.575732 0.372533,-0.372533 0.575732,-0.829732 0.575732,-1.3715974 0,-0.541866 -0.203199,-0.999065 -0.592665,-1.3715978 C 5.1842423,0.3031996 4.7270433,0.1 4.2021113,0.1 3.6602453,0.1 3.2030463,0.3031996 2.8305133,0.6757322 2.4410473,1.048265 2.2547813,1.505464 2.2547813,2.04733 c 0,0.4402654 0.1524,0.8466644 0.423333,1.1853304 l -0.846665,0.812799 -0.795866,-0.812799 c -0.10159905,-0.101599 -0.20319905,-0.101599 -0.32173205,0 -0.118533,0.1016 -0.118533,0.2032 0,0.3048 l 0.79586505,0.812798 -0.3048,0.3048 -0.49106505,0.474132 c -0.118533,0.135467 -0.118533,0.254 0,0.372533 0.1016,0.118533 0.220133,0.118533 0.33866605,-0.01693 l 0.186266,-0.220132 z m 2.387596,-4.1486589 c 0.423332,0 0.778931,0.1523997 1.083731,0.4571991 0.304799,0.3047994 0.457199,0.6603984 0.457199,1.0667984 0,0.4402654 -0.1524,0.7958654 -0.457199,1.0837314 -0.3048,0.304799 -0.660399,0.440265 -1.083731,0.440265 -0.423333,0 -0.778932,-0.135466 -1.083732,-0.440265 -0.304799,-0.287866 -0.440265,-0.643466 -0.440265,-1.0837314 0,-0.4064 0.135466,-0.761999 0.440265,-1.0667984 0.3048,-0.3047994 0.660399,-0.4571991 1.083732,-0.4571991 z"
       id="path849"
       style="font-size:16.9333px;line-height:1.25;font-family:Neanes;-inkscape-font-specification:Neanes;white-space:pre;fill:#1d1f21;fill-opacity:1;stroke:#1d1f21;stroke-width:0.2;stroke-miterlimit:4;stroke-dasharray:none;stroke-opacity:1" />
  </g>
</svg>
