<?xml version="1.0" encoding="UTF-8" standalone="no"?>
<svg
   xmlns:dc="http://purl.org/dc/elements/1.1/"
   xmlns:cc="http://creativecommons.org/ns#"
   xmlns:rdf="http://www.w3.org/1999/02/22-rdf-syntax-ns#"
   xmlns:svg="http://www.w3.org/2000/svg"
   xmlns="http://www.w3.org/2000/svg"
   width="25.667999"
   height="25.492001"
   viewBox="0 0 6.7913246 6.7447587"
   version="1.1"
   id="svg8">
  <defs
     id="defs2">
    <rect
       x="3.8221345"
       y="3.1780832"
       width="201.43996"
       height="92.238968"
       id="rect835" />
  </defs>
  <metadata
     id="metadata5">
    <rdf:RDF>
      <cc:Work
         rdf:about="">
        <dc:format>image/svg+xml</dc:format>
        <dc:type
           rdf:resource="http://purl.org/dc/dcmitype/StillImage" />
        <dc:title></dc:title>
      </cc:Work>
    </rdf:RDF>
  </metadata>
  <g
     id="layer1">
    <path
       d="m 1.5943823,5.1122564 0.829732,0.846665 c 0.1016,0.1016 0.2032,0.118533 0.321733,0.01693 0.1016,-0.1016 0.1016,-0.2032 0,-0.321733 l -0.812799,-0.846661 0.389466,-0.423333 0.829732,0.863598 c 0.1016,0.101601 0.2032,0.101601 0.321733,0 0.118533,-0.101599 0.118533,-0.203199 0.01693,-0.321732 l -0.846662,-0.863599 0.507999,-0.491065 c 0.372533,0.304799 0.795865,0.457199 1.269998,0.457199 0.541865,0 0.999064,-0.186266 1.371597,-0.575732 0.389466,-0.372533 0.592665,-0.846665 0.592665,-1.3885306 0,-0.541866 -0.203199,-0.9990647 -0.575732,-1.3885306 C 5.4213083,0.3031996 4.9641093,0.1 4.4222443,0.1 c -0.541866,0 -1.015998,0.2031996 -1.405464,0.5757322 -0.389466,0.3894659 -0.575733,0.8466646 -0.575733,1.3885306 0,0.4571986 0.135467,0.8635976 0.4064,1.2022636 l -0.491066,0.491066 -0.812798,-0.829732 c -0.1016,-0.08467 -0.2032,-0.08467 -0.321733,0.01693 -0.118533,0.1016 -0.118533,0.186267 0,0.287866 l 0.795865,0.846665 -0.423333,0.389466 -0.77893105,-0.812798 c -0.1016,-0.08467 -0.2032,-0.08467 -0.321733,0.01693 -0.118533,0.1016 -0.118533,0.2032 0,0.304799 l 0.79586505,0.812799 -0.40639905,0.389466 c -0.135467,0.135466 -0.135467,0.253999 -0.01693,0.372532 0.118533,0.118533 0.23706605,0.118533 0.35559905,-0.01693 l 0.186266,-0.220133 z m 2.827862,-4.5889239 c 0.423332,0 0.778931,0.1523997 1.083731,0.4571991 0.287866,0.3047994 0.440266,0.6773322 0.440266,1.0837312 0,0.4402656 -0.1524,0.7958646 -0.440266,1.1006646 -0.3048,0.304799 -0.660399,0.440265 -1.083731,0.440265 -0.440266,0 -0.795866,-0.135466 -1.100665,-0.440265 -0.304799,-0.3048 -0.457199,-0.660399 -0.457199,-1.1006646 0,-0.406399 0.1524,-0.7789318 0.457199,-1.0837312 0.304799,-0.3047994 0.660399,-0.4571991 1.100665,-0.4571991 z"
       id="path851"
       style="font-size:16.9333px;line-height:1.25;font-family:Neanes;-inkscape-font-specification:Neanes;white-space:pre;fill:#1d1f21;fill-opacity:1;stroke:#1d1f21;stroke-width:0.2;stroke-miterlimit:4;stroke-dasharray:none;stroke-opacity:1" />
  </g>
</svg>
