<?xml version="1.0" encoding="UTF-8" standalone="no"?>
<svg
   xmlns:dc="http://purl.org/dc/elements/1.1/"
   xmlns:cc="http://creativecommons.org/ns#"
   xmlns:rdf="http://www.w3.org/1999/02/22-rdf-syntax-ns#"
   xmlns:svg="http://www.w3.org/2000/svg"
   xmlns="http://www.w3.org/2000/svg"
   width="25.667999"
   height="25.492001"
   viewBox="0 0 6.7913246 6.7447587"
   version="1.1"
   id="svg8">
  <defs
     id="defs2">
    <rect
       x="3.8221345"
       y="3.1780832"
       width="201.43996"
       height="92.238968"
       id="rect835" />
  </defs>
  <metadata
     id="metadata5">
    <rdf:RDF>
      <cc:Work
         rdf:about="">
        <dc:format>image/svg+xml</dc:format>
        <dc:type
           rdf:resource="http://purl.org/dc/dcmitype/StillImage" />
        <dc:title></dc:title>
      </cc:Work>
    </rdf:RDF>
  </metadata>
  <g
     id="layer1">
    <path
       d="m 1.9574426,5.0953234 0.829731,0.863598 c 0.1016,0.1016 0.2032,0.1016 0.321733,0 0.118533,-0.1016 0.118533,-0.2032 0.01693,-0.321733 l -0.846665,-0.863598 0.270933,-0.287866 0.829732,0.863599 c 0.1016,0.101599 0.220133,0.101599 0.338666,0 0.118533,-0.1016 0.118533,-0.2032 0,-0.321733 l -0.829729,-0.880532 0.491066,-0.491065 c 0.372532,0.321732 0.812798,0.474132 1.286931,0.474132 0.558799,0 1.032931,-0.186266 1.422397,-0.592665 0.389466,-0.389466 0.592665,-0.863599 0.592665,-1.422398 0,-0.5418653 -0.203199,-1.0159977 -0.592665,-1.4223969 C 5.6997016,0.3031996 5.2255696,0.1 4.6667706,0.1 c -0.558799,0 -1.032932,0.2031996 -1.422398,0.5926655 -0.406399,0.4063992 -0.592665,0.8805316 -0.592665,1.4223969 0,0.457199 0.135466,0.863599 0.423332,1.219198 l -0.507999,0.507999 -0.812798,-0.846665 c -0.1016,-0.1016 -0.220133,-0.08467 -0.338666,0.01693 -0.118533,0.1016 -0.118533,0.2032 0,0.304799 l 0.812798,0.846665 -0.270932,0.270933 -0.795865,-0.829732 c -0.1016,-0.101599 -0.22013306,-0.08467 -0.33866606,0.01693 -0.135467,0.1016 -0.135467,0.2032 -0.01693,0.3048 l 0.82973206,0.829732 -0.287866,0.270932 -0.81279906,-0.829731 c -0.101599,-0.08467 -0.203199,-0.08467 -0.321732,0.01693 -0.135467,0.101599 -0.135467,0.203199 -0.01693,0.304799 l 0.82973206,0.829732 -0.28786606,0.253999 c -0.135466,0.135466 -0.135466,0.270933 -0.01693,0.389466 0.118533,0.135466 0.237066,0.118533 0.37253206,-0.01693 l 0.06773,-0.08467 0.186266,-0.2032 0.829732,0.863599 c 0.101599,0.101599 0.203199,0.118533 0.338666,0.01693 0.118533,-0.1016 0.118533,-0.2032 0,-0.338666 l -0.846672,-0.863594 0.135466,-0.135466 c 0.0508,-0.0508 0.1016,-0.1016 0.1524,-0.135467 z m 2.709328,-4.5550576 c 0.440265,0 0.812798,0.169333 1.117597,0.4741324 0.3048,0.3047994 0.4572,0.677332 0.4572,1.1006642 0,0.440266 -0.1524,0.812799 -0.4572,1.117598 -0.304799,0.3048 -0.677332,0.457199 -1.117597,0.457199 -0.440266,0 -0.812799,-0.152399 -1.117598,-0.457199 -0.3048,-0.304799 -0.457199,-0.677332 -0.457199,-1.117598 0,-0.4233322 0.152399,-0.7958648 0.457199,-1.1006642 0.304799,-0.3047994 0.677332,-0.4741324 1.117598,-0.4741324 z"
       id="path853"
       style="font-size:16.9333px;line-height:1.25;font-family:Neanes;-inkscape-font-specification:Neanes;white-space:pre;fill:#1d1f21;fill-opacity:1;stroke:#1d1f21;stroke-width:0.2;stroke-miterlimit:4;stroke-dasharray:none;stroke-opacity:1" />
  </g>
</svg>
