<?xml version="1.0" encoding="UTF-8" standalone="no"?>
<svg
   xmlns:dc="http://purl.org/dc/elements/1.1/"
   xmlns:cc="http://creativecommons.org/ns#"
   xmlns:rdf="http://www.w3.org/1999/02/22-rdf-syntax-ns#"
   xmlns:svg="http://www.w3.org/2000/svg"
   xmlns="http://www.w3.org/2000/svg"
   width="71.829002"
   height="48.405998"
   viewBox="0 0 19.004756 12.807421"
   version="1.1"
   id="svg8">
  <defs
     id="defs2">
    <rect
       x="8.8569365"
       y="12.407811"
       width="407.32596"
       height="110.995"
       id="rect841" />
    <rect
       x="6.0549321"
       y="7.0818629"
       width="187.61836"
       height="273.24783"
       id="rect835" />
  </defs>
  <metadata
     id="metadata5">
    <rdf:RDF>
      <cc:Work
         rdf:about="">
        <dc:format>image/svg+xml</dc:format>
        <dc:type
           rdf:resource="http://purl.org/dc/dcmitype/StillImage" />
        <dc:title></dc:title>
      </cc:Work>
    </rdf:RDF>
  </metadata>
  <g
     id="layer1">
    <path
       d="m 8.7234462,0.3680371 -4.809057,0.0508 -0.507999,-0.06773 -0.3556,0.01693 -0.152399,2.116663 h 0.220133 c 0.06773,-0.524933 0.152399,-0.880532 0.253999,-1.049865 0.08467,-0.169333 0.220133,-0.304799 0.423333,-0.406399 0.169333,-0.1016 0.474132,-0.169333 0.880531,-0.169333 h 2.455329 l -4.910657,7.7385181 v 0.237066 h 6.231454 l 0.355599,-2.235195 -0.186266,-0.03387 c -0.220133,0.711199 -0.457199,1.185331 -0.694265,1.405464 -0.270933,0.237066 -0.626532,0.355599 -1.100665,0.355599 h -3.149593 z m 5.6049228,3.166527 v 0.186267 c 0.457199,0.135466 0.778932,0.372532 0.948265,0.711198 0.135466,0.287866 0.254,0.575732 0.355599,0.8805321 0.1016,0.304799 0.1524,0.694265 0.1524,1.168397 0,0.3556 -0.0508,0.761999 -0.1524,1.236131 -0.101599,0.474133 -0.389466,0.711199 -0.863598,0.711199 -0.355599,0 -0.609599,-0.118533 -0.761998,-0.389466 -0.1524,-0.270933 -0.270933,-0.541866 -0.338666,-0.829732 0.220132,-0.609598 0.338666,-1.134531 0.338666,-1.54093 0,-0.304799 -0.08467,-0.5926651 -0.220133,-0.8297321 -0.08467,-0.135466 -0.186267,-0.203199 -0.287866,-0.203199 -0.118534,0.01693 -0.2032,0.08467 -0.270933,0.203199 -0.1524,0.220133 -0.237066,0.5079991 -0.237066,0.8635991 -0.03387,0.558799 0.0508,1.117597 0.287866,1.659463 -0.08467,0.270933 -0.2032,0.524932 -0.338666,0.761999 -0.1524,0.237066 -0.389466,0.355599 -0.728132,0.355599 -0.6604,0 -1.032933,-0.270933 -1.134532,-0.829732 -0.1016,-0.541865 -0.08467,-0.982131 0.0508,-1.303864 0.135466,-0.372533 0.270932,-0.694265 0.389465,-0.999065 0.118534,-0.3047991 0.237067,-0.5757321 0.338666,-0.8297311 0.101601,-0.254 0.0508,-0.423333 -0.118533,-0.491066 -0.186266,-0.06773 -0.338666,-0.03387 -0.457199,0.06773 -0.237066,0.237066 -0.440266,0.474133 -0.592665,0.745065 -0.270933,0.4571991 -0.406399,0.9651981 -0.423333,1.5409311 -0.01693,0.440265 0.06773,0.863598 0.270933,1.269997 0.118533,0.3048 0.304799,0.592666 0.575732,0.829732 0.270933,0.237066 0.575732,0.355599 0.931333,0.355599 0.338666,0 0.643465,-0.1016 0.880531,-0.321733 0.237067,-0.203199 0.423333,-0.457199 0.592666,-0.761998 0.135466,0.304799 0.304799,0.558799 0.524932,0.761998 0.2032,0.220133 0.491066,0.321733 0.863598,0.321733 0.338666,0 0.660399,-0.1016 0.965199,-0.338666 0.287866,-0.237066 0.507999,-0.507999 0.660398,-0.812798 0.169333,-0.338666 0.254,-0.761999 0.254,-1.236131 0,-0.880532 -0.372533,-1.6933301 -1.117598,-2.4045291 -0.355599,-0.338663 -0.795865,-0.507996 -1.337731,-0.507996 z"
       id="path845-9"
       style="font-size:16.9333px;line-height:1.25;font-family:Neanes;-inkscape-font-specification:Neanes;white-space:pre;shape-inside:url(#rect841);fill:#1d1f21;fill-opacity:1;stroke:#1d1f21;stroke-width:0.700087;stroke-miterlimit:4;stroke-dasharray:none;stroke-opacity:1" />
  </g>
</svg>
