<?xml version="1.0" encoding="UTF-8" standalone="no"?>
<svg
   xmlns:dc="http://purl.org/dc/elements/1.1/"
   xmlns:cc="http://creativecommons.org/ns#"
   xmlns:rdf="http://www.w3.org/1999/02/22-rdf-syntax-ns#"
   xmlns:svg="http://www.w3.org/2000/svg"
   xmlns="http://www.w3.org/2000/svg"
   width="71.829002"
   height="48.405998"
   viewBox="0 0 19.004756 12.807421"
   version="1.1"
   id="svg8">
  <defs
     id="defs2">
    <rect
       x="8.8569365"
       y="12.407811"
       width="407.32596"
       height="110.995"
       id="rect841" />
    <rect
       x="6.0549321"
       y="7.0818629"
       width="187.61836"
       height="273.24783"
       id="rect835" />
  </defs>
  <metadata
     id="metadata5">
    <rdf:RDF>
      <cc:Work
         rdf:about="">
        <dc:format>image/svg+xml</dc:format>
        <dc:type
           rdf:resource="http://purl.org/dc/dcmitype/StillImage" />
        <dc:title></dc:title>
      </cc:Work>
    </rdf:RDF>
  </metadata>
  <g
     id="layer1">
    <g
       id="g1378"
       transform="translate(-23.817947,-97.102113)">
      <path
         d="m 30.67028,97.470118 -4.80906,0.0508 -0.508,-0.0677 -0.35559,0.0169 -0.1524,2.11666 h 0.22013 c 0.0677,-0.52493 0.1524,-0.88053 0.254,-1.04986 0.0847,-0.16934 0.22013,-0.3048 0.42333,-0.4064 0.16933,-0.1016 0.47413,-0.16933 0.88053,-0.16933 h 2.45533 l -4.91066,7.738512 v 0.23707 h 6.23146 l 0.3556,-2.2352 -0.18627,-0.0339 c -0.22013,0.7112 -0.4572,1.18534 -0.69426,1.40547 -0.27094,0.23706 -0.62654,0.3556 -1.10067,0.3556 h -3.14959 z m 5.60492,3.166532 v 0.18626 c 0.4572,0.13547 0.77893,0.37254 0.94827,0.7112 0.13546,0.28787 0.254,0.57573 0.3556,0.88053 0.1016,0.3048 0.1524,0.69427 0.1524,1.1684 0,0.3556 -0.0508,0.762 -0.1524,1.23613 -0.1016,0.47413 -0.38947,0.7112 -0.8636,0.7112 -0.3556,0 -0.6096,-0.11853 -0.762,-0.38947 -0.1524,-0.27093 -0.27093,-0.54186 -0.33867,-0.82973 0.22014,-0.6096 0.33867,-1.13453 0.33867,-1.54093 0,-0.3048 -0.0847,-0.59266 -0.22013,-0.82973 -0.0847,-0.13547 -0.18627,-0.2032 -0.28787,-0.2032 -0.11853,0.0169 -0.2032,0.0847 -0.27093,0.2032 -0.1524,0.22013 -0.23707,0.508 -0.23707,0.8636 -0.0339,0.5588 0.0508,1.1176 0.28787,1.65946 -0.0847,0.27094 -0.2032,0.52493 -0.33867,0.762 -0.1524,0.23707 -0.38946,0.3556 -0.72813,0.3556 -0.6604,0 -1.03293,-0.27093 -1.13453,-0.82973 -0.1016,-0.54187 -0.0847,-0.98213 0.0508,-1.30387 0.13547,-0.37253 0.27093,-0.69426 0.38947,-0.99906 0.11853,-0.3048 0.23706,-0.57573 0.33866,-0.82973 0.1016,-0.254 0.0508,-0.42333 -0.11853,-0.49107 -0.18627,-0.0677 -0.33867,-0.0339 -0.4572,0.0677 -0.23707,0.23707 -0.44027,0.47414 -0.59267,0.74507 -0.27093,0.4572 -0.4064,0.9652 -0.42333,1.54093 -0.0169,0.44026 0.0677,0.8636 0.27093,1.27 0.11854,0.3048 0.3048,0.59266 0.57574,0.82973 0.27093,0.23706 0.57573,0.3556 0.93133,0.3556 0.33866,0 0.64346,-0.1016 0.88053,-0.32174 0.23707,-0.2032 0.42333,-0.4572 0.59266,-0.76199 0.13547,0.30479 0.3048,0.55879 0.52494,0.76199 0.2032,0.22014 0.49106,0.32174 0.8636,0.32174 0.33866,0 0.66039,-0.1016 0.96519,-0.33867 0.28787,-0.23707 0.508,-0.508 0.6604,-0.8128 0.16933,-0.33866 0.254,-0.762 0.254,-1.23613 0,-0.88053 -0.37253,-1.69333 -1.1176,-2.40453 -0.3556,-0.33866 -0.79586,-0.508 -1.33773,-0.508 z"
         id="path867-6"
         style="font-size:16.9333px;line-height:1.25;font-family:Neanes;-inkscape-font-specification:Neanes;white-space:pre;shape-inside:url(#rect841);fill:#1d1f21;fill-opacity:1;stroke:#1d1f21;stroke-width:0.7;stroke-miterlimit:4;stroke-dasharray:none;stroke-opacity:1" />
      <path
         d="m 40.81333,100.94037 h 0.27093 l 0.8636,-1.761057 c 0.254,-0.508 0.4064,-0.84667 0.4572,-0.99907 0.0339,-0.1016 0.0677,-0.2032 0.0677,-0.3048 -0.0169,-0.11853 -0.0677,-0.22013 -0.1524,-0.30479 -0.0847,-0.0677 -0.2032,-0.11854 -0.33866,-0.11854 -0.18627,0 -0.3556,0.0677 -0.49107,0.16934 -0.1524,0.11853 -0.254,0.30479 -0.32173,0.54186 -0.0677,0.18627 -0.11853,0.52493 -0.16933,1.016 z"
         id="path869-0"
         style="font-size:16.9333px;line-height:1.25;font-family:Neanes;-inkscape-font-specification:Neanes;white-space:pre;shape-inside:url(#rect841);fill:#1d1f21;fill-opacity:1;stroke:#1d1f21;stroke-width:0.7;stroke-miterlimit:4;stroke-dasharray:none;stroke-opacity:1" />
    </g>
  </g>
</svg>
